<?xml version="1.0" encoding="UTF-8" standalone="no"?>
<!-- Created with Inkscape (http://www.inkscape.org/) -->

<svg
   xmlns:dc="http://purl.org/dc/elements/1.1/"
   xmlns:cc="http://creativecommons.org/ns#"
   xmlns:rdf="http://www.w3.org/1999/02/22-rdf-syntax-ns#"
   xmlns:svg="http://www.w3.org/2000/svg"
   xmlns="http://www.w3.org/2000/svg"
   xmlns:sodipodi="http://sodipodi.sourceforge.net/DTD/sodipodi-0.dtd"
   xmlns:inkscape="http://www.inkscape.org/namespaces/inkscape"
   id="svg4187"
   version="1.1"
   inkscape:version="0.91 r13725"
   width="429.375"
   height="615.9375"
   viewBox="0 0 429.375 615.9375"
   sodipodi:docname="JanusHead.svg">
  <metadata
     id="metadata4193">
    <rdf:RDF>
      <cc:Work
         rdf:about="">
        <dc:format>image/svg+xml</dc:format>
        <dc:type
           rdf:resource="http://purl.org/dc/dcmitype/StillImage" />
        <dc:title></dc:title>
      </cc:Work>
    </rdf:RDF>
  </metadata>
  <defs
     id="defs4191" />
  <sodipodi:namedview
     pagecolor="#ffffff"
     bordercolor="#666666"
     borderopacity="1"
     objecttolerance="10"
     gridtolerance="10"
     guidetolerance="10"
     inkscape:pageopacity="0"
     inkscape:pageshadow="2"
     inkscape:window-width="1600"
     inkscape:window-height="837"
     id="namedview4189"
     showgrid="false"
     inkscape:zoom="1.0877727"
     inkscape:cx="214.6875"
     inkscape:cy="307.96875"
     inkscape:window-x="-8"
     inkscape:window-y="-8"
     inkscape:window-maximized="1"
     inkscape:current-layer="svg4187" />
  <path
     style="fill:#000000"
     d="m 15.9375,615.26324 c -12.543254,-0.29741 -15,-0.72732 -15,-2.62485 0,-0.76361 0.3164062,-1.3878 0.703125,-1.38707 0.3867188,7.3e-4 0.5679098,-6.03246 0.402647,-13.4071 L 1.7427938,584.43579 6.730772,578.97888 c 2.7433883,-3.00131 8.739098,-8.3636 13.3238,-11.9162 8.300629,-6.432 15.570428,-12.66842 15.570428,-13.35715 0,-0.19901 -0.824539,-0.57746 -1.832308,-0.841 -1.043562,-0.2729 -2.10543,-1.63155 -2.466787,-3.15622 -0.348963,-1.47238 -1.350921,-3.52081 -2.226575,-4.55206 -3.730844,-4.39378 -6.082361,-22.0468 -3.883933,-29.15698 4.988783,-16.13476 4.892244,-18.72311 -0.839805,-22.51641 -5.777994,-3.82369 -6.986402,-6.27877 -5.573801,-11.32409 0.829225,-2.9617 1.835584,-4.44132 3.434113,-5.04908 3.47754,-1.32216 12.776415,-1.02001 16.50086,0.53616 4.865378,2.03289 11.434061,0.95877 13.640489,-2.23049 2.38204,-3.44311 2.796316,-4.97016 1.959129,-7.22153 -1.27647,-3.4327 -7.068038,-5.44663 -15.055242,-5.23525 -5.868728,0.15533 -7.541491,-0.13894 -9.486459,-1.66886 -4.561972,-3.58845 -4.141441,-9.76358 1.000942,-14.698 1.539262,-1.477 3.466507,-4.70412 4.282768,-7.17136 3.434636,-10.38158 0.875001,-13.79536 -10.343671,-13.79536 -3.788082,0 -9.85688,-0.5092 -13.486219,-1.13157 -11.58233949,-1.98615 -12.9318771,-6.09515 -7.1268953,-21.69956 1.7545105,-4.71631 4.079817,-11.73918 5.1673477,-15.60637 2.2047946,-7.84011 10.9274776,-33.28643 14.1399836,-41.25 1.144018,-2.83594 2.698306,-6.83042 3.453973,-8.87662 1.712971,-4.6384 0.916818,-9.88881 -1.599273,-10.54679 -0.978939,-0.256 -3.165889,-2.62757 -4.859887,-5.27014 -2.521694,-3.93376 -3.058997,-5.66745 -2.964133,-9.56426 0.198524,-8.15496 3.093571,-16.78782 11.708476,-34.91399 2.520049,-5.3023 4.581907,-10.0652 4.581907,-10.58422 0,-0.51902 0.802431,-2.51657 1.783178,-4.439 1.874344,-3.67401 9.715724,-26.68371 10.804148,-31.70361 0.349394,-1.61144 1.876526,-6.82358 3.393627,-11.58255 1.517101,-4.75895 2.554491,-8.98253 2.305311,-9.38571 -0.24918,-0.40318 -1.866806,-0.99828 -3.594724,-1.32244 -5.455247,-1.0234 -9.180717,-6.52813 -9.398012,-13.88643 -0.108631,-3.67859 0.268999,-4.97805 1.809613,-6.22703 2.642697,-2.14246 1.933488,-3.53195 -2.892314,-5.66663 -4.49993,-1.99053 -7.023327,-5.71697 -7.023327,-10.37175 0,-3.21256 1.258974,-5.84034 4.611637,-9.62558 2.070173,-2.33727 2.156996,-2.7868 0.995902,-5.15625 C 35.845446,155.38684 34.137624,148.94531 32.74988,142.5 30.208247,130.69551 29.04216,126.14992 21.085722,97.03125 14.041481,71.251009 13.658962,69.376751 15.139529,67.896186 c 0.701956,-0.701956 4.070638,-1.672013 7.48596,-2.155682 12.55242,-1.777643 49.72943,2.893038 67.140136,8.435053 4.020609,1.279802 4.020609,3.059466 0,2.188046 -2.924382,-0.633826 -2.984219,-0.589708 -1.488368,1.097386 1.399249,1.578144 7.471099,11.257263 18.643863,29.720141 2.13008,3.51993 3.64089,6.63187 3.35735,6.9154 -0.28354,0.28354 -1.69265,-1.42578 -3.13137,-3.79849 -1.43872,-2.37271 -4.72522,-7.66644 -7.30335,-11.763837 -2.578125,-4.0974 -6.943665,-11.034898 -9.701199,-15.416665 l -5.0137,-7.96685 -4.83005,-0.660584 c -2.656528,-0.363321 -5.786852,-1.02248 -6.956277,-1.464797 -2.808948,-1.062442 -20.621603,-3.880197 -21.879125,-3.461023 -0.540244,0.180081 -0.03363,1.16038 1.12582,2.178444 1.159446,1.018062 1.799729,1.323678 1.422853,0.679147 C 53.592928,71.705058 53.862036,71.25 54.705083,71.25 c 1.565712,0 6.232417,5.17625 6.232417,6.912917 0,0.62923 1.6875,2.791855 3.75,4.805833 2.0625,2.013978 3.75,3.238658 3.75,2.721514 0,-0.517146 -0.527344,-1.508605 -1.171875,-2.203244 -0.964007,-1.038952 -0.839287,-1.133155 0.703125,-0.531078 1.03125,0.402545 2.713431,0.694249 3.73818,0.64823 1.371706,-0.0616 1.528409,0.123228 0.594063,0.700686 -1.517724,0.938004 -0.305494,3.351392 1.683382,3.351392 0.730468,0 1.503906,0.527344 1.71875,1.171875 0.625763,1.877289 -2.940207,1.357242 -4.687655,-0.683629 -0.873802,-1.020527 -2.149577,-1.640287 -2.835054,-1.377244 -1.056328,0.40535 -6.991026,-5.526014 -11.626718,-11.620191 -0.839489,-1.103608 -1.190199,-1.191863 -1.211383,-0.304839 -0.0164,0.686659 1.412723,3.008898 3.175824,5.160531 1.763102,2.151633 3.506397,5.110376 3.873991,6.574986 0.421431,1.679117 0.923248,2.250495 1.358293,1.546578 0.497385,-0.804788 1.765813,-0.43718 4.544879,1.317167 2.120216,1.338433 4.281621,2.433516 4.803124,2.433516 0.521502,0 1.475117,0.84375 2.119142,1.875 0.644026,1.03125 1.648661,1.875 2.232522,1.875 2.529673,0 9.673957,3.948178 10.21204,5.64353 0.369455,1.16404 1.419997,1.85647 2.816636,1.85647 1.225077,0 2.77868,0.76606 3.452453,1.70236 0.673762,0.9363 1.874597,1.94371 2.668509,2.23868 1.238541,0.46017 4.554322,2.89876 19.373862,14.24853 2.2143,1.69585 2.17695,1.51192 -0.76147,-3.75 C 110.28158,108.73527 98.420934,88.951447 95.494322,84.674836 92.655331,80.526252 92.335423,79.6875 93.592111,79.6875 c 0.750173,0 3.622233,4.192077 8.992169,13.125 1.39483,2.320312 3.83028,6.328125 5.41211,8.90625 6.50001,10.59392 11.15007,19.73392 10.77315,21.17526 -0.24979,0.95522 0.61335,2.13228 2.28977,3.12256 1.47988,0.8742 2.69069,1.23348 2.69069,0.79843 0,-0.78507 -7.10164,-14.86165 -8.40435,-16.65875 -1.19497,-1.64847 -1.87419,-4.21875 -1.11487,-4.21875 0.40395,0 1.43272,1.37109 2.28617,3.04688 0.85346,1.67578 3.47228,6.62036 5.81962,10.98795 2.34734,4.3676 4.06899,8.4594 3.82591,9.09288 -0.26762,0.6974 0.0888,0.94811 0.90349,0.6355 0.86283,-0.33111 1.69132,0.39335 2.30962,2.0196 0.53029,1.39475 2.75099,4.32775 4.93491,6.51777 2.18391,2.19002 6.502,6.86674 9.59575,10.39272 3.09375,3.52597 7.20703,7.96931 9.14063,9.87408 1.93359,1.90476 3.51562,3.78553 3.51562,4.17949 0,1.17294 6.60974,8.87813 7.61592,8.87813 0.51035,0 0.27116,-0.93762 -0.53151,-2.0836 -0.80267,-1.14598 -1.45783,-2.72801 -1.4559,-3.51563 0.002,-0.78761 0.84567,-0.0507 1.875,1.63751 1.02931,1.68824 1.87149,3.69215 1.87149,4.45313 0,0.76098 0.47108,1.38359 1.04684,1.38359 0.58833,0 0.83019,0.82847 0.55221,1.89149 -0.27206,1.04033 -0.004,2.41142 0.59543,3.04688 1.46815,1.55611 6.24302,8.93974 6.24302,9.65389 0,0.31348 1.342,2.43868 2.98224,4.72267 2.18328,3.04016 3.20971,3.8347 3.83132,2.96575 0.57286,-0.80078 0.69869,-0.50069 0.38679,0.92244 -0.38247,1.74506 -0.0605,2.10938 1.86433,2.10938 1.96289,0 2.29455,-0.40306 2.12144,-2.57813 -0.11286,-1.41796 0.10367,-3.2962 0.48116,-4.17385 0.3775,-0.87766 0.40173,-2.05629 0.0538,-2.6192 -0.34788,-0.5629 -0.12268,-1.63779 0.50047,-2.38863 0.91103,-1.09773 0.84147,-1.36519 -0.35505,-1.36519 -1.69746,0 -3.46467,-2.80699 -3.35501,-5.32899 0.0427,-0.98432 0.27344,-1.20802 0.54687,-0.53039 1.0952,2.71422 2.19072,0.82871 2.17881,-3.75 -0.0145,-5.58962 -0.80491,-9.32531 -1.83792,-8.68687 -0.38503,0.23796 -1.49722,-1.3379 -2.47154,-3.5019 -5.43735,-12.07658 -23.07882,-44.85526 -32.05865,-59.56645 -2.29412,-3.75835 -3.94164,-7.062856 -3.66114,-7.343347 0.2805,-0.2805 1.91643,1.764469 3.6354,4.544377 1.71897,2.77991 3.65581,5.87348 4.30408,6.8746 0.64827,1.00112 1.68885,2.87491 2.3124,4.16397 0.62354,1.28906 3.15174,5.60867 5.6182,9.59912 2.46646,3.99046 4.48447,7.456 4.48447,7.70121 0,0.2452 2.39021,4.57404 5.31159,9.61963 6.05155,10.45176 11.56343,21.9453 11.56343,24.11235 0,0.80723 0.52734,1.46776 1.17187,1.46786 1.59533,2.4e-4 1.44482,-7.82062 -0.18838,-9.78849 -1.05974,-1.27692 -1.03225,-1.42155 0.18161,-0.95574 1.19781,0.45964 1.35164,-0.18452 0.94638,-3.96292 -0.26616,-2.48147 -0.8992,-5.31402 -1.40676,-6.29455 -0.75255,-1.4538 -0.64322,-1.67547 0.59247,-1.2013 1.25707,0.48239 1.51531,-0.13748 1.51531,-3.63727 0,-2.88516 -0.44453,-4.38933 -1.40625,-4.75837 -0.77344,-0.29681 -1.40625,-0.95636 -1.40625,-1.46568 0,-0.50932 -2.33453,-5.5895 -5.18784,-11.28928 -2.85332,-5.69978 -5.01645,-10.82777 -4.80697,-11.39553 0.20948,-0.56776 2.98351,4.34662 6.1645,10.92084 3.181,6.57421 6.1297,11.95312 6.55266,11.95312 0.42296,0 1.04801,-3.26953 1.38899,-7.26562 C 189.85764,91.477017 197.47372,76.794554 225,52.455273 244.91902,34.842477 269.53664,21.128316 303.75,8.5846583 c 10.30456,-3.7779639 15.32173,-5.0218419 27.00123,-6.6942558 18.50328,-2.64952665 20.76205,-1.98344005 12.60814,3.717998 -2.44921,1.7125627 -4.875,3.6034922 -5.39062,4.2020654 -0.51563,0.5985741 -2.61746,2.2220281 -4.67075,3.6076751 -4.08734,2.758313 -3.09623,3.184981 3.73325,1.607155 2.0625,-0.476503 5.91474,-1.078393 8.56055,-1.337531 2.6458,-0.259139 5.91533,-0.748444 7.26562,-1.087346 3.21374,-0.806597 3.09685,0.03261 -0.5918,4.248347 -5.35525,6.120506 -6.47535,7.691509 -5.89657,8.270282 0.31119,0.311195 4.03281,-0.15274 8.27025,-1.030966 12.44708,-2.579705 16.30623,-1.830339 11.22901,2.180435 l -2.58706,2.043657 -0.29958,-1.968587 c -0.34399,-2.260419 -0.21322,-2.239138 -5.79417,-0.942894 -2.32031,0.53892 -5.69531,1.161866 -7.5,1.384321 -1.80469,0.222457 -4.44141,0.648479 -5.85938,0.946716 -3.87047,0.814065 -3.24495,-1.058449 2.34375,-7.016146 5.91535,-6.305892 5.43992,-6.555427 -7.73437,-4.059592 -8.61127,1.631383 -12.1875,1.736848 -12.1875,0.359416 0,-0.362785 3.57238,-3.390445 7.93863,-6.728133 4.36624,-3.3376889 7.95217,-6.4474604 7.96875,-6.9106037 0.095,-2.65590461 -26.35579,2.3692519 -38.08126,7.2347257 -3.01531,1.251196 -7.16987,2.795585 -9.23237,3.431978 -5.61428,1.732305 -34.15482,16.17924 -41.94007,21.229634 -18.22589,11.823379 -36.0754,27.371763 -47.52308,41.396488 -4.16897,5.107474 -11.24012,21.078566 -11.298,25.518003 -0.0168,1.28906 -0.4283,3.82031 -0.91443,5.625 -1.55344,5.76695 -2.81968,24.2888 -2.96966,43.43861 -0.1153,14.72186 -0.4115,18.69688 -1.42208,19.08468 -1.60068,0.61424 -1.67553,2.16394 -0.10455,2.16502 0.87368,5.9e-4 1.24295,3.62011 1.45122,14.22479 0.15363,7.82318 0.50938,14.59619 0.79053,15.0511 1.10638,1.79015 3.40751,-0.30556 16.70551,-15.2142 22.68095,-25.428 30.5662,-33.75 31.97878,-33.75 2.2095,0 1.57842,1.16185 -3.58229,6.59514 -16.60647,17.48359 -26.24523,27.99758 -32.19979,35.12361 -2.58516,3.09375 -6.88453,7.94531 -9.55415,10.78125 -2.66962,2.83594 -4.86125,5.68359 -4.87027,6.32812 -0.009,0.64454 -0.64923,1.17188 -1.42267,1.17188 -0.77344,0 -1.40625,-0.39174 -1.40625,-0.87053 0,-0.4788 -0.57811,-1.44865 -1.28468,-2.15522 -0.70657,-0.70658 -2.0307,-2.74062 -2.94252,-4.52009 -0.91181,-1.77947 -4.65792,-7.59416 -8.32469,-12.92151 -3.66678,-5.32735 -7.08874,-10.37797 -7.60436,-11.22359 -5.25012,-8.6102 -35.51708,-39.82644 -51.31634,-52.92581 -3.22913,-2.67732 -7.55866,-6.48096 -9.62116,-8.45253 -2.0625,-1.97157 -6.070313,-5.14078 -8.90625,-7.04269 -2.835938,-1.9019 -6.471387,-4.56149 -8.078777,-5.9102 -1.60739,-1.3487 -8.107778,-5.09579 -14.445307,-8.326852 C 67.700886,95.232412 60.578523,91.464221 58.210943,90.089722 52.233144,86.619312 28.262628,76.084973 24.84375,75.42582 c -1.721598,-0.331921 -3.494901,-0.03634 -4.571824,0.76206 -1.484211,1.100346 -1.583786,1.632299 -0.636774,3.401807 0.617403,1.153626 1.484452,4.073354 1.926778,6.488283 0.442326,2.414929 1.900226,8.187655 3.239779,12.82828 7.28152,25.22543 9.577097,34.34077 11.273624,44.76562 0.532481,3.272 2.362167,5.03959 2.362167,2.28201 0,-0.67849 1.736642,-2.20966 3.859204,-3.40261 3.374749,-1.89671 5.228308,-2.18318 14.765625,-2.282 10.338802,-0.10714 11.174775,0.0287 16.062671,2.61021 3.774786,1.99362 6.665408,2.77916 10.789111,2.93201 4.292373,0.1591 7.192712,0.99156 12.187505,3.49809 3.605043,1.80911 8.748584,3.7963 11.430074,4.41598 2.68149,0.61967 5.42045,1.78337 6.08657,2.58599 1.5346,1.84908 12.17969,6.81345 14.61007,6.81345 1.85233,0 4.92399,2.0057 10.05292,6.56422 1.54687,1.37485 4.63982,3.01881 6.87321,3.65325 3.31779,0.94249 4.58071,1.99005 6.903,5.72581 1.62842,2.6196 3.898,4.94252 5.31428,5.43921 3.21417,1.1272 23.32938,20.41639 22.3314,21.41437 -0.62591,0.62592 -5.73875,-4.31509 -10.08905,-9.74999 C 169.09818,195.52734 167.39695,195 165.83357,195 c -3.28971,0 -5.52107,-1.85408 -5.52107,-4.58755 0,-2.46693 -3.23941,-4.17939 -6.41544,-3.39142 -9.22531,2.28878 -9.01421,15.56333 0.28461,17.89719 2.44321,0.6132 4.8046,-0.43488 2.68945,-1.1937 -0.78185,-0.28049 -0.64699,-1.18588 0.46875,-3.14697 0.8615,-1.51426 1.77732,-2.75327 2.03513,-2.75334 0.25781,-9e-5 0.5127,2.13344 0.56641,4.74115 0.0873,4.23806 0.51021,5.16166 3.98437,8.70159 3.58505,3.65289 4.90163,6.23305 3.18055,6.23305 -0.38839,0 -1.96769,-1.33658 -3.50954,-2.97019 -3.91563,-4.1486 -11.70216,-8.95279 -15.73751,-9.70983 -3.54441,-0.66494 -11.66931,-6.89799 -9.08351,-6.96845 0.78762,-0.0215 2.40545,0.64278 3.59518,1.4761 2.15405,1.50876 2.16226,1.49989 1.95271,-2.10937 -0.31097,-5.35596 0.85614,-8.54101 4.04388,-11.03579 l 2.84453,-2.22618 -2.15165,-3.02172 c -2.25594,-3.16817 -6.88959,-5.63655 -10.51468,-5.60122 -2.98445,0.0291 -5.98268,2.60121 -8.17174,7.0104 l -1.86179,3.75 -0.0373,-2.97494 c -0.0451,-3.59037 3.58493,-8.27319 7.09636,-9.15451 2.3812,-0.59764 2.40329,-0.66889 0.76757,-2.47634 -2.52027,-2.78486 -7.01505,-5.24822 -10.80248,-5.92028 -4.43821,-0.78754 -7.67512,1.7224 -9.63351,7.46997 -1.42243,4.1746 -1.39951,4.39033 0.84368,7.94378 1.26819,2.00895 3.57373,4.30831 5.12342,5.10968 1.54968,0.80137 2.8176,1.83965 2.8176,2.30729 0,1.43315 3.91663,2.2239 4.70411,0.94973 0.5126,-0.82941 1.55123,-0.25067 3.60548,2.00904 1.587,1.74575 2.89781,3.49547 2.91293,3.88829 0.0151,0.39281 -1.56027,0.46031 -3.50086,0.15 -4.60948,-0.73709 -6.7482,1.54073 -8.24343,8.77959 -0.99886,4.8358 -0.93617,5.54424 0.64521,7.29162 0.96335,1.06449 1.75156,2.41068 1.75156,2.99155 0,1.42179 0.74236,1.77822 5.25911,2.52507 l 3.85286,0.63708 0.50123,-3.73691 c 0.55643,-4.14853 3.11583,-8.20443 5.60491,-8.88214 1.32607,-0.36106 1.45427,-0.12445 0.69808,1.28849 -0.50945,0.95192 -1.30636,1.96567 -1.7709,2.25277 -0.46455,0.28711 -1.14198,2.68394 -1.50539,5.3263 -0.64897,4.71854 -0.59481,4.86495 3.03433,8.20209 2.0323,1.86877 6.08474,5.08528 9.00542,7.14778 2.92067,2.0625 5.31257,4.01721 5.31533,4.34378 0.003,0.32658 -0.82431,0.81066 -1.83793,1.07573 -1.01362,0.26507 -1.75191,0.13541 -1.64062,-0.28811 0.26847,-1.02196 -8.33131,-5.60015 -10.51949,-5.60015 -2.94583,0 -10.37198,9.38946 -10.37198,13.1141 0,0.4425 1.09219,2.10254 2.42708,3.68897 1.93479,2.29935 3.15779,2.88443 6.02938,2.88443 3.23417,0 4.10221,-0.57479 8.49475,-5.625 2.69087,-3.09375 5.67296,-5.625 6.62689,-5.625 2.47427,0 2.14689,1.21743 -0.9414,3.50069 -3.78343,2.79721 -8.31358,9.99466 -9.05578,14.38773 -1.46162,8.65127 4.97098,20.41939 14.07917,25.75715 5.74528,3.36695 13.98129,4.02442 18.91071,1.50962 8.15942,-4.16263 11.16816,-10.98593 8.2331,-18.67127 C 184.55191,257.2837 181.89599,255 176.90666,255 c -4.39473,0 -7.21916,1.99943 -7.21916,5.11049 0,1.38846 -0.24514,1.47815 -1.40625,0.51451 -3.21092,-2.66483 -0.34683,-8.02366 4.80487,-8.99013 9.57434,-1.79615 19.10138,6.4285 19.10138,16.49013 0,7.94115 -7.35823,17.4167 -15.2382,19.62295 -8.06084,2.25689 -18.47394,-1.71186 -25.95563,-9.89251 -7.67546,-8.39252 -10.42091,-16.56512 -7.43747,-22.13973 0.86266,-1.61189 0.74392,-2.20187 -0.64794,-3.21961 -0.93727,-0.68536 -2.66177,-1.2461 -3.83222,-1.2461 -1.17044,0 -4.47135,-1.90862 -7.33533,-4.24137 -2.86399,-2.33275 -6.91891,-5.13353 -9.01093,-6.22395 -2.09202,-1.09042 -4.7222,-3.23578 -5.84485,-4.76747 -1.12265,-1.53169 -2.88493,-3.15517 -3.91618,-3.60773 -1.03125,-0.45256 -4.40625,-2.69844 -7.5,-4.99083 -3.09375,-2.2924 -6.363281,-4.19626 -7.265625,-4.23082 -0.902344,-0.0346 -1.640625,-0.42621 -1.640625,-0.87033 0,-0.44412 -1.005234,-0.61533 -2.233856,-0.38046 -1.228626,0.23487 -2.519148,-0.0346 -2.867832,-0.59876 -0.348683,-0.56417 -1.434086,-1.02578 -2.412007,-1.02578 -0.977921,0 -3.332207,-1.05469 -5.231747,-2.34375 -1.89954,-1.28906 -4.036912,-2.34375 -4.749718,-2.34375 -0.712806,0 -3.961496,-1.20859 -7.219313,-2.68575 -3.257818,-1.47717 -8.233899,-2.97444 -11.057957,-3.32729 -4.972698,-0.6213 -5.17242,-0.55876 -6.332033,1.98262 -0.658559,1.44329 -2.19948,6.42104 -3.424268,11.06167 -4.132027,15.65592 -6.038739,22.02308 -8.495135,28.36819 -1.345528,3.47562 -3.739575,9.69431 -5.320105,13.81931 -1.58053,4.125 -4.961371,12.5625 -7.512982,18.75 -7.239144,17.55448 -8.079738,20.25328 -8.112441,26.04574 -0.04065,7.19925 1.794077,11.27591 6.376763,14.16883 5.617798,3.54636 5.743609,5.88976 0.996438,18.56002 -7.761698,20.71608 -9.4829,25.69899 -11.708073,33.89506 -1.238565,4.56206 -2.44905,10.27483 -2.689966,12.69508 -0.46146,4.63581 -2.855301,11.35402 -4.045683,11.35402 -0.386238,0 -1.474517,2.69658 -2.4183972,5.9924 -2.7956316,9.76171 -1.245718,11.08219 17.2083122,14.66103 5.929688,1.14997 11.984637,2.70188 13.455443,3.44871 3.521282,1.78799 10.881607,3.99995 13.352381,4.01272 1.080241,0.006 2.63196,-0.72814 3.448264,-1.63048 1.236981,-1.36737 1.311445,-2.28761 0.447067,-5.52498 -0.870448,-3.26012 -0.795052,-4.12643 0.469148,-5.39063 0.828448,-0.82845 2.274684,-1.49344 3.213857,-1.47776 1.626612,0.0272 1.628488,0.0745 0.03957,0.99941 -1.566681,0.91193 -1.545576,1.07006 0.347379,2.60289 1.709126,1.38396 1.916612,2.21668 1.365347,5.47959 -0.95292,5.64029 -3.275653,7.29709 -10.219867,7.28981 -3.169285,-0.004 -6.922493,-0.36546 -8.340462,-0.80476 -2.353698,-0.72918 -2.578125,-0.58771 -2.578125,1.62526 0,3.99945 -4.583856,14.92288 -7.545114,17.98017 -3.334668,3.44281 -3.460082,5.07152 -0.597588,7.7607 1.814034,1.7042 3.279256,2.03842 8.936361,2.03842 8.226025,0 12.60696,1.6814 15.119808,5.80296 2.479903,4.06753 2.40268,8.58091 -0.210342,12.29365 -1.931416,2.74429 -2.605942,3.02505 -7.995262,3.32799 -3.237237,0.18198 -8.545744,-0.19783 -11.796683,-0.84402 -6.352568,-1.26268 -9.911384,-0.82145 -12.251874,1.51904 -2.678422,2.67842 -1.704241,5.33203 3.696274,10.06841 l 5.144416,4.51176 0,6.60291 c 0,3.6316 -0.676069,9.19505 -1.502375,12.36323 -2.181147,8.36284 -1.434949,19.32548 1.732165,25.44782 5.256865,10.16205 15.272266,16.96866 30.467739,20.70631 8.976875,2.20806 11.143337,2.40969 19.737157,1.83697 10.45227,-0.69658 16.750511,-2.46564 24.878364,-6.9879 2.86583,-1.59452 5.70962,-2.89913 6.31953,-2.89913 0.60991,0 2.7796,-1.50936 4.82154,-3.35413 4.332,-3.9137 5.57539,-3.67196 2.50108,0.48625 -4.88139,6.60245 -29.981773,16.93038 -41.146552,16.93038 -17.401696,0 -38.278486,-5.70322 -42.313208,-11.55932 -0.679287,-0.98593 -2.68294,-0.0279 -2.68294,1.28284 0,1.06918 -7.566425,8.10533 -11.836317,11.0068 -1.740026,1.18238 -3.163683,2.55644 -3.163683,3.05348 0,1.15639 14.641147,1.16337 30.46875,0.0145 6.703125,-0.48656 25.476562,-1.13465 41.71875,-1.44022 16.24219,-0.30557 34.66749,-0.76126 40.94513,-1.01264 7.28543,-0.29173 11.62892,-0.10908 12.00844,0.505 0.37631,0.60888 -1.40465,1.02618 -4.85136,1.13673 -2.99528,0.0961 -7.13346,0.24435 -9.19596,0.32952 -2.0625,0.0851 -14.62973,0.49535 -27.92719,0.91151 -13.297444,0.41615 -24.355654,1.04543 -24.573793,1.39839 -0.21814,0.35296 9.12375,0.43812 20.759755,0.18925 17.405118,-0.37225 21.300108,-0.2215 21.967068,0.85021 0.67425,1.08344 1.14347,1.09639 2.78777,0.077 1.62796,-1.00926 2.24419,-1.00926 3.48981,0 1.12066,0.90802 1.33027,0.92197 0.80871,0.0538 -0.47476,-0.79025 -0.0574,-1.17188 1.28162,-1.17188 1.13605,0 1.72781,0.41721 1.38303,0.97508 -0.40151,0.64965 0.284,0.72787 2.05404,0.23437 1.46118,-0.40738 5.6098,-0.6683 9.21918,-0.5798 4.32549,0.10606 5.92336,-0.11116 4.6875,-0.63722 -1.45337,-0.61867 -1.03174,-0.79815 1.875,-0.79815 2.92055,0 3.33527,0.17822 1.875,0.80572 -1.47995,0.63595 -1.08489,0.82262 1.875,0.88597 2.38816,0.0511 3.30205,0.36429 2.51653,0.86241 -0.67841,0.43019 -5.93571,0.86461 -11.68287,0.96538 -9.73784,0.17075 -11.89235,0.45177 -10.91179,1.42325 0.21485,0.21286 6.29688,0.0772 13.51563,-0.30155 11.93873,-0.62632 13.42157,-0.52622 16.40625,1.10759 5.83905,3.19628 5.46508,3.55716 -3.09019,2.98208 -4.50499,-0.30282 -20.94562,-0.10534 -36.53473,0.43884 -15.5891,0.54418 -39.93024,1.25 -54.091408,1.56849 -14.161167,0.31848 -26.606479,0.89625 -27.65625,1.28391 -1.049769,0.38768 -9.209646,0.55588 -18.13306,0.3738 -11.69659,-0.23867 -16.045398,-0.0414 -15.5830167,0.7067 0.3527539,0.57077 0.129754,1.35396 -0.4955555,1.74042 -0.8518455,0.52647 -0.9694076,3.64312 -0.4688476,12.42943 l 0.6680788,11.72677 17.926864,0.13061 c 9.859776,0.0719 24.044052,0.23162 31.520615,0.35506 11.794285,0.19472 82.93292,-0.98278 98.90625,-1.63712 3.09375,-0.12673 13.42969,-0.50066 22.96875,-0.83094 9.53906,-0.33029 28.52344,-1.00588 42.1875,-1.50131 13.66406,-0.49542 64.67384,-1.16446 113.35507,-1.48675 48.68121,-0.32229 88.97027,-0.76144 89.53125,-0.97589 0.69328,-0.26502 0.92268,-5.11316 0.71627,-15.13779 -0.167,-8.11135 -0.37794,-14.7715 -0.46875,-14.80034 -0.0908,-0.0289 -11.13384,0.24809 -24.54009,0.61539 -23.49823,0.6438 -64.78386,1.60238 -91.68381,2.12873 -7.1136,0.13919 -13.15022,-0.0971 -13.4147,-0.52503 -0.2645,-0.42795 -0.90277,-0.7781 -1.41839,-0.7781 -0.51563,0 -0.69479,0.39273 -0.39814,0.87272 0.82643,1.33719 -1.29195,2.23099 -2.63867,1.11332 -0.80497,-0.66807 -8.45514,-0.79914 -23.6308,-0.40486 -12.34227,0.32065 -30.56158,0.57945 -40.48736,0.5751 -9.92579,-0.005 -18.04688,0.35244 -18.04688,0.7929 0,0.44045 -0.84375,0.80082 -1.875,0.80082 -1.03125,0 -1.875,-0.46412 -1.875,-1.03137 0,-0.72175 -4.99582,-0.94899 -16.64062,-0.75694 -16.66133,0.27478 -20.85938,-0.18101 -20.85938,-2.26477 0,-0.61281 -1.2996,-1.68947 -2.888,-2.39256 -1.5884,-0.7031 -2.52926,-1.6371 -2.09079,-2.07557 0.43847,-0.43847 10.17557,-1.08734 21.63801,-1.44193 l 20.84078,-0.64472 -0.0163,-2.43044 c -0.0308,-4.60204 -2.6563,-14.87289 -4.96799,-19.43481 -3.06609,-6.05062 -6.81094,-17.47445 -7.64067,-23.30814 -0.36668,-2.57813 -1.23759,-5.32655 -1.93536,-6.1076 -0.69776,-0.78106 -1.67012,-3.20684 -2.16078,-5.39062 -0.71817,-3.1965 -0.63737,-3.97053 0.41452,-3.97053 0.71862,0 1.30659,0.42188 1.30659,0.9375 0,0.51562 0.56948,0.9375 1.26552,0.9375 0.69604,0 3.71517,3.68098 6.70918,8.17997 2.99402,4.49898 7.40804,10.29976 9.80895,12.89062 6.87083,7.41444 10.85418,12.7435 13.57111,18.15585 2.32121,4.62405 2.43497,5.37525 1.48486,9.80547 -1.08287,5.04924 -3.15068,8.15559 -5.42898,8.15559 -0.79861,0 -1.14747,0.55709 -0.84403,1.34783 0.33297,0.86772 -0.21573,1.49016 -1.54032,1.74734 -1.7549,0.34073 -1.68981,0.41827 0.44246,0.52716 1.375,0.0702 2.66818,-0.37686 2.87372,-0.99351 0.2731,-0.81928 8.30875,-1.29759 29.84376,-1.77641 16.20851,-0.36037 29.63879,-0.6996 29.84506,-0.75382 0.49341,-0.12971 -7.35915,-5.90287 -9.68469,-7.12012 -0.9953,-0.52097 -2.10866,-2.06882 -2.47413,-3.43966 -0.36546,-1.37083 -1.92115,-4.32395 -3.45707,-6.5625 -7.09813,-10.34517 -9.54544,-20.06887 -7.92857,-31.50208 1.16268,-8.22153 0.11726,-15.18325 -3.09713,-20.62478 -2.3359,-3.95438 -0.96998,-5.10995 1.88422,-1.59406 3.71766,4.57953 5.2216,13.24591 4.03712,23.26362 -1.41317,11.95188 0.26469,18.15425 8.27952,30.60599 7.05667,10.96316 15.37271,16.875 23.73766,16.875 6.10152,0 2.09986,1.00314 -6.15551,1.54308 -4.58093,0.2996 -8.96177,0.92316 -9.73521,1.38567 -0.8602,0.51439 1.68803,0.6331 6.5625,0.30572 4.38281,-0.29436 23.36719,-0.67855 42.1875,-0.85378 18.82031,-0.17522 38.85938,-0.36714 44.53125,-0.42649 7.04548,-0.0737 9.867,-0.39635 8.90625,-1.01838 -0.85414,-0.553 -7.11142,-0.68968 -15.9375,-0.34811 -7.99219,0.30929 -15.375,0.58973 -16.40625,0.6232 -7.11506,0.23096 -15.46875,-0.42298 -15.46875,-1.21091 0,-0.57317 4.39344,-0.9375 11.30533,-0.9375 6.21793,0 11.10443,-0.31641 10.85888,-0.70313 -0.24555,-0.38671 -2.06342,-1.54687 -4.03971,-2.57812 -4.25358,-2.21957 -5.79135,-3.87008 -10.15904,-10.90388 -3.46948,-5.58733 -4.41025,-11.12737 -1.88957,-11.12737 0.76361,0 1.60736,1.05469 1.875,2.34375 0.26764,1.28906 0.70697,3.40395 0.97629,4.69974 0.72814,3.50327 8.65691,11.97021 14.33927,15.31257 4.26597,2.50923 5.85523,2.91923 11.01563,2.84182 6.07842,-0.0912 7.81751,-1.09704 3.92104,-2.26785 -5.10938,-1.53527 -11.50833,-10.48244 -9.64881,-13.49121 1.1135,-1.80168 3.48368,0.0966 2.92081,2.33931 -0.79433,3.16482 4.33967,8.1109 10.98192,10.57998 6.68859,2.4863 20.10913,2.80756 25.37481,0.60742 3.77058,-1.57545 6.40419,-5.69314 5.60236,-8.75939 -0.68457,-2.61776 1.61414,-2.7202 3.22322,-0.14364 0.64403,1.03125 1.64163,1.875 2.21689,1.875 1.5524,0 16.04676,6.60223 17.762,8.09065 0.81404,0.70639 2.21356,1.28435 3.11005,1.28435 1.17948,0 1.47243,0.49642 1.05992,1.7961 -0.31354,0.98786 -0.13102,2.06744 0.40557,2.39908 0.62551,0.38659 0.97564,7.6366 0.97564,20.20216 0,19.12551 -0.0489,19.62539 -2.02563,20.68328 -1.55195,0.83057 -3.21663,0.79836 -7.11891,-0.13779 -3.94655,-0.94676 -5.49284,-0.97234 -6.8679,-0.1136 -2.20248,1.37548 -5.84928,1.40519 -10.59906,0.0863 -3.03186,-0.84182 -4.165,-0.73019 -6.75698,0.66568 -2.9393,1.58292 -3.38727,1.5898 -7.97553,0.12253 -4.40562,-1.40886 -5.1783,-1.41999 -8.24303,-0.11876 -2.85916,1.21395 -4.14234,1.25652 -8.30415,0.27551 -3.92626,-0.92549 -5.64277,-0.92257 -8.48179,0.0143 -2.47605,0.81718 -4.68718,0.91196 -7.26506,0.31141 -2.03814,-0.47473 -11.93227,-0.77454 -21.98696,-0.66618 -10.05469,0.10836 -68.27344,0.49009 -129.375,0.84828 -61.10156,0.35819 -121.007812,0.98804 -133.125,1.39967 -12.117188,0.41162 -22.713788,0.39407 -23.548002,-0.039 -1.377646,-0.71523 -16.199192,-0.50581 -19.576998,0.27658 -0.773438,0.17916 -6.257813,0.2107 -12.1875,0.0701 z m 409.6875,-7.39706 c 0,-0.2014 -2.00391,-0.35972 -4.45313,-0.35183 -2.52197,0.008 -3.95036,0.33369 -3.29377,0.75072 1.10854,0.70409 7.7469,0.36227 7.7469,-0.39889 z M 77.34375,578.37077 c 3.484667,-0.48688 -2.222888,-0.59459 -15,-0.28307 C 51,578.36428 38.976562,578.94135 35.625,579.37008 c -3.786889,0.48441 1.891537,0.59157 15,0.28306 11.601562,-0.27305 23.625,-0.85012 26.71875,-1.28237 z m 49.14063,-1.46711 c 0.74374,-0.64956 -30.412277,-0.15269 -35.54688,0.56688 -2.835938,0.39744 3.914062,0.50924 15,0.24844 11.08594,-0.26079 20.33203,-0.62769 20.54688,-0.81532 z m -73.359274,-1.81681 c 0.431672,-1.12492 1.705918,-1.41732 5.361203,-1.23023 9.54,0.48829 18.039942,-0.0937 16.286492,-1.1152 -1.112631,-0.64816 -5.148027,-0.60773 -12.65625,0.12681 -6.062541,0.59311 -12.781463,1.08904 -14.930939,1.10206 -2.917546,0.0177 -3.783225,0.34921 -3.415323,1.30796 0.726393,1.89294 8.616928,1.73151 9.354817,-0.1914 z M 37.96875,574.21566 c 1.958168,-0.66344 -13.237287,-0.245 -15.46875,0.42597 -1.289063,0.3876 1.453125,0.52179 6.09375,0.2982 4.640625,-0.2236 8.859375,-0.54947 9.375,-0.72417 z m 142.76839,0.89648 c -0.28208,-0.28207 -2.3563,-0.64724 -4.60938,-0.81148 -2.25308,-0.16424 -4.904,-0.63796 -5.89092,-1.05271 -1.20622,-0.5069 -1.58844,-0.4208 -1.16604,0.26266 0.34561,0.55921 0.0984,1.23041 -0.54933,1.49155 -0.64775,0.26115 1.95119,0.50812 5.77541,0.54882 3.82421,0.0407 6.72233,-0.15676 6.44026,-0.43884 z m 25.76013,-1.08457 c -1.15307,-0.22253 -3.26245,-0.2283 -4.6875,-0.0127 -1.42506,0.21548 -0.48164,0.39755 2.09648,0.40459 2.57813,0.008 3.74408,-0.16927 2.59102,-0.3918 z m 107.56523,-1.01159 c 0,-0.70061 -22.8921,-0.47911 -24.84375,0.24038 -0.51563,0.19009 4.86328,0.37892 11.95312,0.41962 7.08985,0.0407 12.89063,-0.25629 12.89063,-0.66 z m 103.82812,-1.78723 c -0.90234,-0.2358 -1.64062,-0.82772 -1.64062,-1.31536 0,-0.48764 0.95914,-0.64589 2.13142,-0.35166 1.17226,0.29422 3.17617,0.11986 4.45312,-0.38747 1.74719,-0.69417 0.0496,-0.90366 -6.86047,-0.84658 -7.93073,0.0655 -9.30877,0.31241 -10.1111,1.81159 -0.86916,1.62403 -0.45925,1.72873 6.36967,1.62698 4.01424,-0.0598 6.56033,-0.30169 5.65798,-0.5375 z M 405,568.97767 c 0,-0.97617 -12.78263,-1.0466 -15.18065,-0.0836 -0.8728,0.35048 2.18579,0.70452 6.79688,0.78677 4.61107,0.0822 8.38377,-0.23416 8.38377,-0.70313 z m -191.43561,-1.22544 c 7.07973,-3.66107 8.28614,-9.11054 3.93421,-17.77111 -1.6737,-3.33074 -4.49574,-7.55147 -6.27121,-9.3794 -3.45977,-3.56201 -4.30153,-4.66348 -12.94614,-16.94052 -3.09375,-4.39372 -5.89698,-7.99931 -6.2294,-8.0124 -0.33242,-0.0131 -0.2024,1.55823 0.28892,3.49182 0.49134,1.9336 1.48534,6.38879 2.20892,9.90042 0.72357,3.51163 3.17547,10.47257 5.44867,15.46875 5.24262,11.52258 6.40692,15.17989 6.48541,20.37208 0.0569,3.76603 0.28553,4.18063 2.30502,4.18063 1.23301,0 3.38203,-0.58962 4.7756,-1.31027 z M 420,566.39064 c 0,-1.12185 -11.2522,-5.77159 -13.95915,-5.76833 -2.23211,0.003 -4.70436,2.2841 -4.76104,4.39355 -0.0164,0.61028 1.13035,1.28535 2.54831,1.50016 C 408.78762,567.26731 420,567.18039 420,566.39064 Z M 131.56342,235.71107 c 0.84068,-1.76294 3.20745,-4.36679 5.25947,-5.78634 2.05202,-1.41954 3.74697,-3.04672 3.76653,-3.61596 0.0196,-0.56923 -0.99896,-2.15126 -2.2634,-3.51563 -2.05342,-2.21567 -2.98248,-2.48064 -8.69765,-2.48064 -7.15003,0 -9.6121,1.17591 -11.84856,5.65898 -1.21019,2.4259 -1.23053,3.2658 -0.14217,5.87063 1.46825,3.514 3.78408,5.82882 7.03418,7.03112 3.37934,1.2501 5.18196,0.42297 6.8916,-3.16216 z m -15.7841,-10.09309 c 0.71975,-1.72261 2.79098,-4.26265 4.60273,-5.64455 4.08163,-3.1132 3.63284,-4.64905 -2.1232,-7.26605 -6.61851,-3.00911 -9.85123,-3.56679 -12.42077,-2.14269 -2.93472,1.6265 -3.65058,1.60769 -3.65058,-0.0959 0,-0.77344 0.42188,-1.40625 0.9375,-1.40625 1.5251,0 1.07124,-1.35861 -0.78697,-2.35582 -0.94845,-0.50898 -4.124911,-2.06786 -7.058808,-3.46415 -2.933894,-1.3963 -6.017652,-3.22203 -6.852796,-4.05717 -0.835144,-0.83515 -2.294287,-1.31556 -3.242539,-1.06759 -0.948253,0.24798 -2.701583,-0.31803 -3.896289,-1.25778 -3.027881,-2.38174 -11.239707,-3.78015 -13.99266,-2.38285 -1.74079,0.88356 -2.123486,1.82007 -2.056979,5.03369 0.04494,2.17149 0.664034,5.03625 1.375764,6.36613 1.602066,2.99349 6.893652,5.78248 11.711205,6.17254 3.495742,0.28303 3.655946,0.16908 4.199894,-2.987 0.747968,-4.33985 2.528991,-7.5 4.226913,-7.5 1.735416,0 1.722235,0.47087 -0.09063,3.23766 -0.915543,1.39729 -1.354509,3.75224 -1.171875,6.28681 0.276325,3.83481 0.537639,4.16895 4.861799,6.21661 5.396925,2.55566 7.162762,2.40417 8.734978,-0.74939 1.818771,-3.64809 3.617091,-2.95621 3.254521,1.25216 -0.27515,3.1936 0.12845,3.99152 3.67494,7.26562 5.07104,4.68156 7.96821,4.84358 9.76385,0.54601 z m 5.15818,-18.92934 c 0,-4.12988 2.30016,-9.83202 4.71502,-11.68864 1.76086,-1.35379 1.66723,-1.5374 -2.50976,-4.92188 -6.79726,-5.50759 -10.93292,-4.77469 -14.66175,2.59828 -1.08537,2.14608 -1.23628,3.85026 -0.62263,7.03125 0.44548,2.30923 0.82834,4.53888 0.85079,4.95479 0.0449,0.8312 9.18108,5.19713 11.05646,5.28355 0.7265,0.0335 1.17187,-1.20446 1.17187,-3.25735 z m -60.324423,-0.0684 c 1.738632,-0.46643 1.909578,-0.92441 1.229791,-3.29469 -0.476834,-1.66262 -0.39824,-3.87542 0.198443,-5.58706 0.543387,-1.55877 0.833731,-2.91805 0.645208,-3.02064 -0.188523,-0.10263 -1.186519,-0.72239 -2.217769,-1.37728 -1.03125,-0.6549 -3.140625,-1.78486 -4.6875,-2.51102 -1.546875,-0.72617 -3.546653,-2.19424 -4.44395,-3.2624 -0.897296,-1.06816 -2.251956,-1.94211 -3.010353,-1.94211 -2.374078,0 -5.102857,3.85535 -5.741069,8.11124 -0.525916,3.50706 -0.262619,4.54601 1.855997,7.32367 1.661548,2.1784 3.539358,3.43766 5.742595,3.85098 1.800557,0.33779 3.504916,0.98821 3.787463,1.44539 0.583505,0.94412 3.651184,1.06602 6.641144,0.26387 z m 44.188993,-9.00768 c -0.036,-6.44764 0.0987,-6.87645 2.89258,-9.2089 1.61169,-1.3455 2.93035,-2.70151 2.93035,-3.01334 0,-0.31184 -2.48096,-2.07408 -5.51326,-3.91611 -7.718774,-4.6889 -13.030779,-4.52973 -15.615163,0.46793 -1.952343,3.77541 -1.699391,8.26181 0.737798,13.08572 1.665609,3.29673 3.194135,4.71582 7.265625,6.74544 2.83594,1.4137 5.64756,2.57744 6.24804,2.58608 0.73471,0.0106 1.07945,-2.19607 1.05403,-6.74682 z m -18.962974,-7.66603 c -0.05423,-6.49549 0.138482,-7.17325 3.083142,-10.84339 1.727543,-2.15315 2.993168,-4.02295 2.8125,-4.1551 -2.108993,-1.54265 -9.560797,-3.34699 -11.718569,-2.83747 -7.89946,1.86531 -10.236369,9.90946 -4.984856,17.15896 1.564098,2.15918 3.989879,4.3316 5.390625,4.8276 1.964836,0.69576 4.769299,2.10536 5.417158,2.72282 0.03182,0.0304 0.03182,-3.06272 0,-6.87342 z m -14.824332,0.91379 c 0.258472,-0.25847 -0.215675,-2.18348 -1.053658,-4.27781 -2.372875,-5.9304 -1.982463,-9.74457 1.390675,-13.58636 l 2.91428,-3.31919 -3.617405,-1.54404 c -5.307047,-2.26524 -11.80024,-2.1599 -15.031293,0.24387 -2.300501,1.71148 -2.686346,2.69255 -2.935706,7.46447 -0.468794,8.97116 1.774329,12.4546 10.130843,15.73263 1.49813,0.58767 7.415843,0.0728 8.202264,-0.71357 z M 49.900398,178.13586 c -0.603429,-6.28001 1.112921,-10.18957 5.228227,-11.90906 3.943186,-1.64757 3.334264,-2.30321 -4.503625,-4.84916 -4.13975,-1.34469 -7.225343,-1.7928 -9.62274,-1.39744 -3.066285,0.50566 -3.828812,1.1789 -5.815692,5.13469 -2.090814,4.16272 -2.176557,4.81458 -1.000922,7.60954 2.285241,5.43294 8.317709,10.01119 13.254861,10.05956 l 2.909257,0.0285 -0.449366,-4.67664 z m 62.895252,1.44778 c -0.74294,-4.57816 0.32676,-9.20438 2.723,-11.77644 1.43572,-1.54107 1.70058,-2.32788 0.87614,-2.60268 -0.85136,-0.2838 -0.73923,-0.71742 0.40114,-1.55128 1.43162,-1.04683 1.30169,-1.35756 -1.36033,-3.25308 -4.49402,-3.20003 -8.15503,-3.93868 -13.04666,-2.63234 -5.269237,1.40718 -7.707993,4.90194 -7.663706,10.98218 0.02869,3.94424 0.295669,4.38651 4.1025,6.79688 2.239476,1.41796 4.438916,2.58022 4.887636,2.58278 0.44874,0.003 2.08151,1.04208 3.62838,2.31003 4.20398,3.44596 6.10166,3.14799 5.4519,-0.85605 z M 92.152349,167.27113 c 0.606835,-5.87967 2.478676,-9.35844 5.865985,-10.9018 1.261791,-0.57491 2.276866,-1.29399 2.255736,-1.59794 -0.0582,-0.83772 -9.11652,-4.91922 -12.722309,-5.73246 -1.747219,-0.39406 -4.758792,-0.35464 -6.692386,0.0876 -2.911162,0.66583 -3.75741,0.50507 -4.921875,-0.93501 -2.867724,-3.5465 -6.847282,-4.64418 -17.903525,-4.93835 -12.070639,-0.32116 -15.466672,0.64051 -18.02914,5.10534 -1.84285,3.21099 -2.069273,8.1255 -0.39546,8.58346 3.248712,0.88889 13.134012,2.50214 13.442382,2.19376 0.194523,-0.19452 -0.03492,-1.70864 -0.509873,-3.36469 -1.187665,-4.14115 0.422625,-8.2908 3.918866,-10.09878 l 2.819968,-1.45826 -2.560099,3.35646 c -2.224363,2.91629 -2.478537,3.90036 -1.938161,7.50384 0.342066,2.28106 1.209447,4.63497 1.927514,5.23091 1.794076,1.48895 12.773876,4.73817 13.822099,4.09033 0.467625,-0.289 0.581488,-2.11613 0.253028,-4.06027 -0.385651,-2.28265 -0.09394,-4.73926 0.823514,-6.93503 1.562881,-3.7405 4.046809,-4.82285 2.962492,-1.29087 -1.351783,4.40319 -1.503468,10.58747 -0.313846,12.79567 0.770534,1.43029 2.747027,2.69855 5.430241,3.48442 2.320313,0.67959 5.0625,1.64069 6.09375,2.13577 1.942225,0.93243 4.265823,1.77217 5.259466,1.90075 0.314582,0.0407 0.814816,-2.27898 1.111633,-5.15486 z M 60,83.817586 c 0,-0.306578 -1.745112,-2.388474 -3.878028,-4.626437 -3.368896,-3.534817 -4.054631,-3.892418 -5.223214,-2.723836 -1.930124,1.930123 -3.536934,1.66281 -4.859507,-0.80844 C 44.732682,73.217528 41.25,70.693189 41.25,72.1875 c 0,0.573662 -0.746797,0.487006 -1.875,-0.217568 -3.34627,-2.089781 -1.999472,-2.7575 4.21875,-2.091585 3.796597,0.40658 6.09375,0.306425 6.09375,-0.265686 0,-1.00901 -17.646991,-2.590671 -18.573004,-1.664657 -0.316122,0.316122 -0.0441,1.4245 0.604491,2.463062 1.050948,1.682835 0.996083,1.793986 -0.504239,1.021546 -0.925924,-0.476711 -2.21062,-0.677735 -2.85488,-0.446719 -0.64426,0.231015 -1.427677,-0.247866 -1.740927,-1.064182 -0.743811,-1.93834 -5.056441,-1.979737 -5.056441,-0.04854 0,0.78962 0.738281,1.673843 1.640625,1.964939 0.902344,0.291095 2.273437,0.766706 3.046875,1.056913 0.773437,0.290206 1.731655,0.457671 2.129374,0.372145 0.397717,-0.08553 3.624335,0.504365 7.170261,1.310868 4.689263,1.06655 6.56933,1.93363 6.895284,3.18008 0.328709,1.256987 1.075688,1.593748 2.802808,1.263587 1.295064,-0.247567 3.330991,0.07239 4.524281,0.711022 1.513232,0.809857 2.272406,0.85278 2.509374,0.141875 0.411062,-1.233185 3.031118,-0.384598 3.031118,0.981722 0,0.532522 0.738281,1.528656 1.640625,2.213633 C 58.711987,84.405123 60,84.72117 60,83.817586 Z M 35.390625,72.109375 C 33.563018,70.107711 33.345714,69.375 34.579678,69.375 c 0.456324,0 1.520736,1.054687 2.365362,2.34375 1.796459,2.741743 0.816995,2.987884 -1.554415,0.390625 z M 50.15625,75 c -0.318674,-0.515625 0.168705,-0.9375 1.083065,-0.9375 1.569885,0 1.566706,-0.09137 -0.05707,-1.640625 -1.197684,-1.142712 -1.846078,-1.300957 -2.136463,-0.521416 -0.229304,0.615565 -1.022472,0.886836 -1.762596,0.602823 -1.635217,-0.627491 -1.767995,0.761904 -0.220681,2.309218 1.356971,1.356971 3.912234,1.511836 3.09375,0.1875 z m 109.12344,492.49819 c -3.01649,-2.35119 -6.712,-6.85842 -10.41159,-12.69851 -3.97356,-6.27257 -5.88169,-24.29261 -3.48592,-32.92041 1.28321,-4.62114 6.25326,-15.37056 7.44809,-16.10901 1.46291,-0.90412 1.08624,0.72116 -1.32599,5.72148 -5.09317,10.55764 -6.49884,21.26672 -4.25891,32.44649 1.14415,5.71056 4.11347,12.17905 6.64056,14.46603 0.95649,0.86561 1.73907,2.11254 1.73907,2.77095 0,0.65842 1.37109,2.16359 3.04687,3.34485 1.67579,1.18125 3.86471,2.89747 4.86428,3.81383 3.01588,2.76482 -0.53041,2.06855 -4.25646,-0.8357 z m -8.03628,0.0279 c -4.45957,-2.15984 -10.96861,-8.84594 -13.29984,-13.66159 -2.60581,-5.38288 -3.65652,-17.82713 -2.11292,-25.02469 1.52811,-7.1253 6.99403,-18.15441 10.85596,-21.90506 7.05218,-6.84899 8.93171,-15.59251 8.30902,-38.65351 l -0.43033,-15.9375 3.87998,-7.5 c 2.13399,-4.125 5.07944,-9.60938 6.54546,-12.1875 1.46601,-2.57813 3.59352,-7.42969 4.72779,-10.78125 1.84186,-5.44236 1.99794,-7.2673 1.46011,-17.0722 -0.55605,-10.13728 -0.95517,-11.91147 -5.20913,-23.15571 -5.06467,-13.38713 -6.18908,-18.25109 -7.60028,-32.8773 -0.82835,-8.58527 -1.37641,-10.5948 -4.34663,-15.9375 -1.86933,-3.36248 -5.77592,-9.0667 -8.68132,-12.67607 -10.61904,-13.19203 -20.36047,-27.8343 -26.50789,-39.84375 -4.76691,-9.31255 -5.21343,-10.00822 -9.80045,-15.26864 C 103.86387,259.11593 90,237.3404 90,235.14943 c 0,-2.42266 0.827922,-2.1222 1.896448,0.68823 0.501897,1.32009 1.330374,2.14193 1.841058,1.82631 0.515538,-0.31862 0.700572,0.0202 0.416022,0.76169 -0.281869,0.73454 1.258725,3.81504 3.423544,6.84556 2.164828,3.03052 3.615198,4.66628 3.223048,3.63503 -3.012729,-7.9227 -5.04672,-17.95446 -3.438879,-16.96076 0.552,0.34115 1.287487,2.18751 1.634418,4.10302 0.814294,4.49598 4.043291,13.39253 5.517371,15.20149 0.63025,0.77344 2.1578,3.26401 3.39456,5.53461 2.71374,4.9822 6.00616,8.42041 14.00164,14.62164 5.48983,4.25787 5.84716,4.41084 3.89862,1.66897 -1.17983,-1.66019 -2.54099,-3.26316 -3.02479,-3.56216 -3.68267,-2.27601 -17.16409,-33.31953 -15.28563,-35.19799 0.53355,-0.53355 1.88351,2.29548 3.49768,7.32988 3.19296,9.9585 8.13984,19.43707 15.45624,29.61527 10.06501,14.00193 10.86701,16.22044 3.06401,8.47574 -2.39751,-2.37959 -5.83567,-5.41261 -7.64036,-6.74004 -1.80469,-1.32742 -4.91602,-3.91564 -6.91407,-5.75158 -3.85257,-3.54002 -3.98595,-3.32463 -1.03192,1.66636 1.01874,1.72119 3.71243,6.36182 5.98598,10.3125 5.13607,8.92476 7.93283,13.25512 12.81322,19.8393 2.10208,2.83594 6.8882,9.48063 10.63582,14.76598 3.74763,5.28535 7.2162,9.36108 7.70794,9.05716 0.51632,-0.3191 0.55009,-1.01243 0.08,-1.64098 -0.44778,-0.59862 -1.37081,-2.98685 -2.05117,-5.30716 -3.22338,-10.99309 -7.49124,-20.96258 -11.83944,-27.65625 l -2.43599,-3.75 2.94737,3.04687 c 1.62105,1.67579 3.24239,3.04846 3.60298,3.0504 0.59651,0.003 1.87594,2.93748 5.31258,12.18398 0.67076,1.80469 1.7487,5.60156 2.39545,8.4375 0.64674,2.83594 2.97183,9.375 5.16688,14.53125 2.19504,5.15625 4.27931,10.21875 4.63173,11.25 0.5415,1.5846 0.85368,1.2942 2.01563,-1.875 2.66775,-7.27625 -0.35873,-27.07592 -6.33284,-41.43023 -1.9952,-4.79389 -3.62761,-9.59729 -3.62761,-10.67422 0,-3.12945 2.06384,-1.57531 3.27389,2.46534 0.60968,2.03589 2.17786,5.81098 3.48483,8.38911 6.45676,12.73654 9.24889,36.61678 5.04227,43.125 -1.88205,2.9118 -2.41408,15.12052 -0.91048,20.89324 0.71334,2.73872 1.29699,5.72316 1.29699,6.63209 0,0.90892 1.84177,6.26725 4.09282,11.90738 9.74276,24.41107 9.74416,39.88731 0.005,56.77191 -7.85158,13.61233 -10.36742,25.0261 -9.30935,42.2344 0.47797,7.77384 0.27443,11.32368 -0.91382,15.9375 -1.82232,7.07586 -6.13949,15.00041 -9.30023,17.07141 -5.43455,3.56085 -11.43648,22.22436 -10.43815,32.45832 0.99805,10.23118 7.94424,21.48697 16.06447,26.03127 2.92285,1.63571 1.13313,2.11468 -2.08245,0.55733 z M 308.4375,560.6115 c -5.63554,-1.263 -14.05549,-5.25506 -17.02048,-8.06974 -3.68208,-3.4954 -9.15555,-11.7204 -10.72584,-16.11774 -1.42024,-3.97715 -1.74103,-14.23652 -0.44515,-14.23652 0.47907,0 1.35053,2.42578 1.93658,5.39062 0.58605,2.96485 1.48245,6.73151 1.99201,8.37036 1.15943,3.72898 7.31821,13.23408 10.30132,15.89844 3.07704,2.74826 11.71914,6.59773 16.54367,7.36907 2.1936,0.35072 3.75073,1.02215 3.46029,1.49209 -0.59471,0.96226 -1.37337,0.94982 -6.0424,-0.0966 z m -117.99833,-8.77429 c -2.6478,-4.31765 -4.81417,-8.10202 -4.81417,-8.40971 0,-0.30769 -1.0023,-2.78678 -2.22734,-5.50909 -1.22503,-2.72231 -2.74041,-6.55017 -3.3675,-8.50634 -1.33386,-4.16089 -3.61341,-21.14132 -2.92989,-21.82484 0.73042,-0.73042 2.86965,7.21337 2.8855,10.71495 0.0365,8.06185 5.04894,20.53236 13.64044,33.93595 4.64521,7.24701 4.72417,7.44937 2.90671,7.44937 -0.70378,0 -3.44596,-3.53263 -6.09375,-7.85029 z m 127.39132,6.2008 c -5.48838,-2.70243 -10.01895,-8.1862 -12.2148,-14.78473 -1.10135,-3.30954 -1.86621,-6.95091 -1.6997,-8.09193 0.2888,-1.97893 0.37841,-1.99857 1.94338,-0.426 0.90235,0.90672 1.64989,2.7786 1.66122,4.15974 0.0485,5.91215 5.95321,14.17116 12.5195,17.51116 1.90453,0.96875 3.21538,3.29762 1.83491,3.2599 -0.42969,-0.0117 -2.24971,-0.7444 -4.04451,-1.62814 z m -134.06272,-2.77154 c -8.39582,-7.18651 -17.83027,-25.80725 -17.83027,-35.19154 0,-4.06896 1.55186,-4.84181 1.66594,-0.82967 0.10355,3.64222 3.76568,15.4842 6.56335,21.22349 1.38991,2.85133 5.09062,7.34994 9.44744,11.48437 7.3491,6.97397 7.46965,9.57567 0.15354,3.31335 z m -18.2664,-2.23859 c -1.82263,-1.60029 -3.31387,-3.7832 -3.31387,-4.85092 0,-1.87824 0.079,-1.86747 2.43282,0.3315 2.3254,2.17242 5.61925,7.42904 4.65513,7.42904 -0.25312,0 -1.95145,-1.30933 -3.77407,-2.90962 z m 229.23988,-5.93187 c -0.84894,-1.0229 -0.62431,-1.6217 1.04765,-2.79279 1.17057,-0.8199 2.65641,-1.49072 3.30188,-1.49072 0.64546,0 1.86904,-1.34487 2.71904,-2.98861 2.10033,-4.06159 1.20087,-12.91906 -1.72583,-16.99523 -1.16339,-1.62031 -2.54636,-3.79852 -3.07329,-4.84047 -0.52693,-1.04193 -2.70793,-2.45122 -4.84668,-3.13174 -5.60669,-1.78395 -5.84415,-3.61367 -0.75225,-5.79631 4.9815,-2.13533 7.70484,-6.09185 8.54853,-12.41951 0.83327,-6.24945 3.1647,-5.4327 3.1647,1.10865 0,5.84646 -4.49068,13.0477 -8.20313,13.15451 -1.75286,0.0504 -1.4127,1.70592 0.47353,2.30459 2.21352,0.70254 9.02813,9.60654 10.38734,13.57214 2.34291,6.83566 0.21956,15.44405 -4.29837,17.42616 -1.16015,0.50899 -2.10937,1.23243 -2.10937,1.60764 0,0.37521 -0.79945,1.11006 -1.77655,1.63299 -1.30234,0.69699 -2.06503,0.60322 -2.8572,-0.3513 z M 157.15867,534.7129 c -0.84745,-6.18287 -0.73783,-10.6504 0.26133,-10.6504 0.47163,0 1.02224,2.63672 1.22359,5.85937 0.20134,3.22266 0.70435,6.59766 1.11779,7.5 0.53135,1.15966 0.34742,1.64063 -0.6274,1.64063 -0.92999,0 -1.57328,-1.4165 -1.97531,-4.3496 z m 77.5876,-5.57609 c -8.65534,-7.73298 -7.86304,-5.98087 -7.9477,-17.57566 -0.17676,-24.20716 0.13484,-56.21329 0.78643,-80.7799 0.77874,-29.36012 0.77862,-25.4658 0.004,-118.125 -0.31044,-37.125 -0.64132,-76.94054 -0.73529,-88.47898 -0.1347,-16.5379 0.0918,-21.14134 1.07002,-21.7459 0.6825,-0.4218 1.40844,-0.59939 1.61319,-0.39463 0.20476,0.20476 0.53311,70.73567 0.72967,156.73535 0.3922,171.59902 -0.0404,159.26024 5.8041,165.52478 2.27467,2.43811 8.60243,3.89243 7.22272,1.66001 -0.31209,-0.50498 -0.1586,-1.68204 0.34108,-2.61569 0.56562,-1.05688 1.0911,-47.50396 1.39231,-123.06626 0.43798,-109.87386 1.30856,-207.23664 1.91302,-213.94681 0.12773,-1.41796 0.30607,-3.63281 0.3963,-4.92187 0.0998,-1.42537 0.73558,-2.34375 1.6226,-2.34375 1.29689,0 1.39836,2.77927 0.91558,25.07812 -2.27056,104.87407 -2.3129,258.03035 -0.0713,258.05968 0.53815,0.007 1.88921,0.25712 3.00235,0.55574 1.46062,0.39183 2.15047,0.0622 2.47875,-1.18468 0.42612,-1.61842 0.49508,-1.60911 1.09119,0.14739 0.34998,1.03125 2.43484,2.97582 4.63303,4.32127 6.53799,4.00172 10.87872,13.77872 10.85657,24.45325 -0.0143,6.90837 -0.99253,12.1412 -2.19472,11.74046 -0.64713,-0.21571 -0.91121,-3.21696 -0.73406,-8.34244 0.34272,-9.91592 -1.42635,-16.37983 -6.01574,-21.98056 -3.65111,-4.4557 -5.82135,-5.90878 -10.3509,-6.93035 l -2.9436,-0.66389 -0.61912,18.85738 c -0.34052,10.37156 -0.73522,20.54488 -0.87711,22.60738 -0.14189,2.0625 -0.34156,8.28516 -0.44371,13.82812 -0.18445,10.00931 -0.20134,10.07813 -2.47413,10.07813 -1.25863,0 -2.54916,0.42187 -2.86783,0.9375 -1.0582,1.71219 -4.84576,0.97028 -7.59749,-1.48819 z m 32.03331,-18.67355 c -0.64905,-3.45973 0.78987,-7.90373 1.66777,-5.15076 1.05788,3.31739 1.39056,5.89405 0.91947,7.12167 -0.86945,2.26575 -1.94634,1.44538 -2.58724,-1.97091 z m -84.42607,-1.40076 c -0.51025,-0.77344 -1.88769,-5.41406 -3.06099,-10.3125 -2.63975,-11.02088 -3.8938,-36.08969 -2.20496,-44.07778 1.39862,-6.61538 5.63607,-17.79722 6.7444,-17.79722 1.32145,0 1.02766,1.61233 -1.02803,5.6418 -5.88509,11.53573 -6.10387,37.46556 -0.48515,57.49746 1.67187,5.96052 1.69337,11.56237 0.0347,9.04824 z m 6.64117,-2.71478 c -2.08925,-2.30861 -3.6238,-13.06344 -2.88992,-20.25397 0.79155,-7.7555 5.34876,-22.13002 7.61128,-24.00773 1.99877,-1.65885 1.6306,0.80013 -1.14112,7.62136 -4.37103,10.75718 -5.4395,23.61435 -2.80609,33.76642 0.66358,2.55817 1.12275,4.6512 1.02039,4.6512 -0.10237,0 -0.90991,-0.79977 -1.79454,-1.77728 z m 136.75364,-17.96351 c -1.11629,-1.80618 0.44704,-5.35452 2.60289,-5.90783 5.60248,-1.43791 9.13166,-10.53625 9.14269,-23.57013 0.005,-5.67498 -3.97052,-22.34984 -5.88397,-24.68083 -0.75165,-0.91567 -0.6788,-1.45458 0.27646,-2.04496 0.99849,-0.61709 0.72668,-1.06152 -1.18066,-1.93057 -2.24325,-1.02209 -2.44609,-1.53833 -2.14329,-5.45504 0.18393,-2.37935 0.3717,-5.30022 0.41724,-6.49081 0.14807,-3.87024 1.95782,-1.12482 1.95782,2.97004 0,2.18676 0.37449,4.3767 0.8322,4.86654 2.03425,2.17707 14.00438,25.68213 15.01515,29.48438 1.31947,4.96355 1.02068,22.15372 -0.3786,21.78262 -0.55387,-0.14688 -0.80691,-3.02674 -0.61837,-7.03756 0.33804,-7.19094 -1.40595,-15.8288 -4.62285,-22.89675 -0.98451,-2.16312 -1.79003,-4.3263 -1.79003,-4.80708 0,-0.48078 -0.63281,-1.39933 -1.40625,-2.04123 -1.75364,-1.45539 -1.77924,-1.77707 0.51854,6.51477 1.54118,5.56151 1.80884,8.45389 1.34303,14.51241 -1.0138,13.18574 -2.10465,17.03554 -6.15219,21.7121 -2.02297,2.33737 -3.67813,4.64597 -3.67813,5.13024 0,1.20678 -3.4937,1.11614 -4.25168,-0.11031 z m 26.30406,-0.85002 c -0.30705,-0.49681 1.12218,-2.58375 3.17606,-4.63763 5.74015,-5.74015 6.98438,-8.82856 6.83071,-16.95509 -0.25388,-13.42658 -2.56335,-20.58702 -13.30915,-41.26469 -1.28906,-2.48049 -3.39844,-5.37722 -4.6875,-6.43719 -2.43532,-2.00251 -1.19137,-2.69317 1.88513,-1.04666 2.72429,1.45798 12.01784,17.99659 15.19226,27.03577 3.36654,9.5863 4.52103,23.11823 2.64094,30.95528 -1.93861,8.08107 -9.46728,16.00886 -11.72845,12.35021 z M 396.25,487.8125 c -1.06081,-1.06081 -0.71284,-1.99611 1.71875,-4.61984 1.73963,-1.87709 2.34375,-3.56132 2.34375,-6.53413 0,-5.71545 -0.67002,-6.82674 -4.78389,-7.93449 -4.38082,-1.17963 -4.70223,-3.06221 -0.79886,-4.67904 1.80003,-0.7456 3.35871,-2.38859 4.21875,-4.44698 1.79268,-4.29049 1.86215,-3.99105 -1.96249,-8.45929 -2.76039,-3.22488 -3.75755,-3.8023 -5.85938,-3.39289 -1.93073,0.37607 -3.94927,-0.46743 -8.49084,-3.54811 -5.10863,-3.46535 -6.47774,-5.04382 -9.6042,-11.07273 -3.94516,-7.60768 -10.66236,-14.6907 -16.99648,-17.92213 -2.84126,-1.4495 -5.11575,-1.84389 -9.27637,-1.60849 -5.69592,0.32227 -6.29735,0.0692 -4.38374,-1.84438 2.20174,-2.20174 8.54006,-1.25476 16.00093,2.39063 5.86453,2.86541 7.98054,4.53348 11.44094,9.01905 2.3351,3.02688 4.24563,6.03382 4.24563,6.68208 0,0.64826 0.60654,1.68204 1.34787,2.29729 1.09618,0.90975 1.59679,0.62483 2.68093,-1.52584 0.73318,-1.45445 1.61391,-3.81526 1.95718,-5.24622 1.64668,-6.86459 12.75135,-14.17749 20.77895,-13.68383 4.22724,0.25995 7.92257,-1.83059 7.92257,-4.48201 0,-2.1202 6.24449,-8.31072 10.31905,-10.22987 l 3.85351,-1.81503 -0.54607,-4.6875 c -0.30035,-2.57812 -0.73661,-10.70418 -0.96946,-18.05789 -0.36563,-11.54645 -0.95248,-15.57501 -4.30189,-29.53125 -3.43832,-14.32674 -7.17157,-26.1474 -13.1162,-41.53 -5.17914,-13.40181 -6.01426,-38.69459 -1.74707,-52.91211 1.41959,-4.72982 2.13963,-9.66329 2.19986,-15.07257 0.0868,-7.79563 -0.004,-8.14789 -2.96824,-11.5294 -4.99147,-5.6939 -9.1769,-15.2606 -12.35577,-28.24178 -1.64149,-6.70312 -4.66236,-16.82812 -6.71304,-22.5 -2.0507,-5.67187 -3.98386,-12.94922 -4.29592,-16.17187 -0.59318,-6.12563 -1.31215,-6.82556 -4.62657,-4.50405 -1.06426,0.74545 -3.92023,1.85522 -6.3466,2.46619 -3.75449,0.9454 -4.93384,0.87534 -7.9181,-0.47038 -2.74006,-1.2356 -4.07573,-1.36482 -6.11054,-0.59119 -4.04517,1.53798 -6.93026,1.17975 -8.4954,-1.05481 -1.34931,-1.9264 -1.53316,-1.95356 -3.17386,-0.46875 -2.1456,1.94174 -4.87196,2.01659 -7.27413,0.19967 -1.69609,-1.28284 -1.55739,-1.37846 2.03998,-1.40625 3.40873,-0.0263 4.13083,-0.44065 6.17909,-3.54543 5.82315,-8.82683 7.25497,-16.58942 4.79862,-26.01563 -0.67182,-2.57812 -1.2265,-5.12812 -1.23262,-5.66665 -0.007,-0.54482 2.20159,-1.03096 4.97718,-1.09595 4.1305,-0.0967 5.89772,-0.73441 10.27676,-3.70835 2.90864,-1.97535 5.30453,-3.88813 5.32418,-4.25061 0.0445,-0.82136 -6.23601,-2.60993 -9.18947,-2.61696 -1.26893,-0.003 -3.2345,1.18059 -4.66188,2.80727 -3.30985,3.77197 -4.54724,3.57123 -2.12686,-0.34503 1.0733,-1.73664 1.95146,-3.33765 1.95146,-3.55779 0,-0.22015 -1.89844,-1.183146 -4.21875,-2.140005 -2.32031,-0.95685 -4.21875,-2.085403 -4.21875,-2.507887 0,-0.422485 1.26563,-1.703869 2.8125,-2.847526 1.54688,-1.143655 2.8125,-2.510298 2.8125,-3.036987 0,-1.10127 8.37067,-9.002275 9.5374,-9.002275 1.69545,0 0.51721,1.550197 -5.31865,6.997683 -3.35156,3.128519 -6.09375,6.217936 -6.09375,6.865364 0,0.647437 1.16016,1.635375 2.57812,2.195428 1.41797,0.560053 3.2546,1.359731 4.0814,1.777069 1.1375,0.574162 3.53263,-1.282125 9.84375,-7.629142 9.28042,-9.333212 9.29904,-9.658888 0.61418,-10.743989 C 362.21848,80.686136 360,80.035691 360,79.579478 c 0,-0.456212 -1.16016,-0.840576 -2.57813,-0.854142 -4.0329,-0.03858 -15.57675,-3.346249 -15.9884,-4.581168 -0.20373,-0.611185 2.48271,-3.761557 5.96987,-7.000828 3.86998,-3.594888 6.07645,-6.316461 5.66314,-6.985212 -0.39533,-0.639659 -3.02759,-1.095628 -6.32493,-1.095628 -4.0077,0 -5.5378,-0.330022 -5.26898,-1.136458 0.39413,-1.182381 5.08563,-1.171802 13.38488,0.03018 l 4.40189,0.637526 -5.9578,5.467822 c -3.27678,3.007302 -6.70388,6.147935 -7.61577,6.979185 -0.91189,0.83125 -1.5122,1.956667 -1.33401,2.500928 0.42436,1.296242 10.82454,3.379066 13.53886,2.711406 1.494,-0.367485 2.10938,-0.100679 2.10938,0.914538 0,1.544577 1.8885,2.081962 10.78125,3.067874 3.09375,0.342994 5.96861,0.823597 6.38858,1.068005 0.41998,0.244408 -0.84565,1.826504 -2.8125,3.51577 -1.96684,1.689265 -6.31827,5.656743 -9.66983,8.816617 -6.94088,6.543899 -6.80656,7.075259 2.04831,8.102979 2.99843,0.348 5.45087,0.90771 5.44988,1.2438 -9.4e-4,0.33609 -2.00491,1.99564 -4.45312,3.68789 -9.68591,6.69505 -11.62846,9.74134 -7.75458,12.16062 2.97326,1.85683 5.64701,8.10056 5.64701,13.18685 0,3.24123 -0.82414,6.21792 -2.80062,10.11548 -3.30379,6.51496 -3.41551,7.48416 -1.01101,8.771 4.40323,2.35654 9.72926,0.1726 13.50935,-5.5395 3.59632,-5.4344 4.06179,-10.53913 1.56598,-17.17378 -2.37656,-6.31761 -8.66439,-11.94123 -13.35164,-11.94123 -1.78994,0 -2.61762,-0.41073 -2.36151,-1.17187 0.56331,-1.67419 5.11407,-0.95487 10.06934,1.59162 2.8601,1.46978 5.11875,3.63236 7.03125,6.73218 2.46076,3.98843 2.81761,5.43787 2.81761,11.44449 0,6.00069 -0.26897,7.09572 -2.10938,8.58777 -1.16015,0.94056 -2.10937,2.38076 -2.10937,3.20046 0,1.77194 1.06956,1.92079 2.625,0.36535 0.875,-0.875 1.12857,-0.30208 1.14107,2.57812 0.0195,4.48867 2.48047,13.64028 7.0464,26.20313 1.87402,5.15625 4.64735,14.01562 6.16294,19.6875 2.5631,9.59203 7.15022,20.10508 11.23058,25.73895 2.9512,4.07481 4.82753,16.24764 2.83162,18.37042 -2.15877,2.29601 -5.84695,26.79288 -5.18517,34.43982 0.80293,9.27776 3.2273,21.07757 5.70562,27.77006 9.20481,24.85691 14.66005,46.40011 16.16499,63.837 0.60078,6.96094 1.52623,14.97656 2.05656,17.8125 2.6759,14.30938 2.25359,15.91935 -4.63914,17.6859 -5.20402,1.33375 -10.83489,6.49281 -11.95422,10.95258 -0.73504,2.92865 -3.61208,4.17402 -9.64278,4.17402 -5.2212,0 -12.43719,2.24987 -14.46156,4.50896 -0.78107,0.87163 -2.55918,4.44021 -3.95137,7.93016 -2.21877,5.56208 -2.38873,6.6894 -1.37684,9.13233 1.39857,3.37645 6.24723,6.55355 10.00153,6.55355 2.54967,0 10.6291,4.30223 11.87978,6.32588 0.30056,0.48631 0.82379,2.61843 1.16272,4.73804 0.55754,3.48664 0.32674,4.14333 -2.42237,6.89245 -2.44679,2.4468 -2.83141,3.32214 -1.97473,4.49425 3.91613,5.35802 4.78013,7.41079 4.78336,11.36469 0.003,3.40381 -0.47807,4.70279 -2.34024,6.32192 -1.28906,1.12083 -2.34375,2.46254 -2.34375,2.98157 0,1.0593 -2.16373,1.27997 -3.125,0.3187 z M 354.29403,149.10381 c 3.53716,-1.80452 4.64531,-3.57163 8.10603,-12.92623 1.37191,-3.70837 0.10688,-11.01978 -2.39353,-13.83383 -0.91632,-1.03125 -1.92064,-2.71948 -2.23184,-3.75163 -0.32687,-1.08416 -1.95636,-2.31187 -3.85877,-2.90732 -4.54264,-1.42182 -5.49705,-0.0677 -4.66215,6.61452 0.93217,7.46092 -0.25021,16.80894 -2.44637,19.34113 -1.74036,2.00664 -2.47317,7.38129 -1.1824,8.67205 1.17167,1.17167 5.06798,0.62843 8.66903,-1.20869 z M 199.47652,477.9411 c -0.65011,-1.76468 0.16683,-3.5661 1.61723,-3.5661 0.6875,0 1.44833,0.52734 1.69075,1.17187 0.70381,1.87129 5.61862,-4.52796 8.192,-10.66626 1.26761,-3.02364 2.62116,-5.49935 3.00788,-5.50157 1.00759,-0.006 0.86853,1.65807 -0.19344,2.31441 -0.49311,0.30475 -0.70054,1.06793 -0.46096,1.69595 0.23958,0.62802 -1.36087,4.30591 -3.55656,8.1731 -3.49623,6.15777 -4.35581,7.06664 -6.91937,7.3161 -1.77298,0.17253 -3.10478,-0.19714 -3.37753,-0.9375 z M 273.75,475.07564 c 0,-1.22238 0.83234,-5.40028 1.84964,-9.28423 1.0173,-3.88394 2.12887,-9.43752 2.47014,-12.34128 0.36725,-3.1247 1.00055,-5.04468 1.55163,-4.70408 1.28439,0.79379 0.12694,10.93758 -1.6373,14.34926 -0.81044,1.56721 -1.04342,2.96526 -0.54545,3.27303 2.16534,1.33825 5.68634,-9.47185 5.68634,-17.45808 0,-11.9608 -2.97073,-20.49908 -9.18852,-26.40901 -3.08683,-2.93399 -3.28473,-2.81671 -4.80364,2.84675 -0.58144,2.16796 -2.04344,5.12108 -3.24889,6.5625 -3.0355,3.62968 -8.07145,15.45283 -8.07145,18.94976 0,1.58936 -0.42188,2.88974 -0.9375,2.88974 -3.03872,0 2.81036,-16.56339 8.62763,-24.43167 3.78051,-5.11341 3.82322,-9.08566 0.20705,-19.25674 -1.81472,-5.10419 -3.52226,-10.12409 -3.79456,-11.15534 -0.45529,-1.72433 -0.34438,-1.7042 1.3802,0.2506 1.03139,1.16908 2.82215,5.31521 3.97945,9.2136 1.6716,5.63081 2.74153,7.57413 5.20427,9.45255 4.44994,3.39413 11.02584,13.95962 12.33999,19.82665 2.33427,10.42132 0.67904,21.14233 -4.43572,28.73027 -1.40002,2.07698 -3.0983,5.15648 -3.77396,6.84332 -1.55597,3.88456 -2.85935,4.72895 -2.85935,1.8524 z m -54.01367,-19.61665 c 1.01899,-5.09497 2.53942,-5.15385 1.7649,-0.0683 -0.25522,1.67578 -0.89076,3.04688 -1.41232,3.04688 -0.56539,0 -0.70776,-1.20265 -0.35258,-2.97851 z m -5.16257,1.61477 c -0.28054,-0.28055 -0.19343,-2.84352 0.19359,-5.69549 2.96517,-21.85048 1.27844,-62.81464 -3.39586,-82.47202 -2.26061,-9.50678 -2.41317,-11.44098 -1.95268,-24.75604 0.27474,-7.94395 0.88191,-14.82593 1.34928,-15.2933 1.23061,-1.23061 1.9854,7.11244 1.01959,11.26979 -1.55988,6.71447 -0.95291,18.65593 1.43036,28.14091 3.3214,13.2185 4.27723,21.72228 4.91904,43.76364 0.67208,23.0806 -1.24846,47.35737 -3.56332,45.04251 z m 7.34558,-23.01126 c 0.2772,-9.65269 0.91572,-17.75948 1.43988,-18.28125 1.17413,-1.16875 0.19815,28.68022 -1.07288,32.8125 -0.56128,1.82481 -0.69017,-3.27828 -0.367,-14.53125 z m 101.15529,11.36787 c -1.21957,-1.89471 -3.35249,-14.85817 -3.33576,-20.27412 0.0168,-5.444 1.91389,-14.96333 3.61246,-18.12717 1.92241,-3.58075 2.17262,-1.65031 0.35978,2.77578 -2.09405,5.11262 -2.35217,22.70054 -0.41867,28.52673 1.38629,4.17728 1.22774,9.34454 -0.21781,7.09878 z m -6.88115,-3.59181 c -1.37368,-2.09613 -1.65635,-4.578 -1.62838,-14.29688 0.0316,-10.99031 0.23697,-12.2976 3.13555,-19.96356 1.70592,-4.51171 3.48365,-8.20312 3.95051,-8.20312 1.44093,0 0.94688,2.67735 -1.34647,7.29679 -3.69584,7.44446 -4.66077,12.59984 -4.15787,22.21439 0.31249,5.97419 0.96308,9.61393 2.00181,11.19924 0.84638,1.29174 1.53887,2.78533 1.53887,3.3191 0,1.80261 -1.82142,0.98629 -3.49402,-1.56596 z m -133.23826,-7.45215 c 3.86379,-8.53939 6.77183,-13.63255 7.07599,-12.39295 0.61461,2.50479 -3.8468,12.49466 -5.74312,12.85985 -0.93034,0.17917 -1.53013,-0.0309 -1.33287,-0.4669 z m 114.35987,-20.44268 c -1.62805,-2.26701 -3.22712,-5.52318 -3.55351,-7.23591 -0.75662,-3.97061 -0.0425,-3.26924 4.38396,4.30554 4.12984,7.06721 3.56692,9.05359 -0.83045,2.93037 z m 32.39204,-2.9926 c 0.39953,-1.46844 0.71791,-5.64538 0.70753,-9.28211 C 330.38135,390.00734 325.94707,382.5 319.09232,382.5 c -1.73515,0 -3.15482,-0.42188 -3.15482,-0.9375 0,-1.28134 5.93223,-1.18448 8.84899,0.1445 1.30609,0.59508 3.11278,2.17712 4.01485,3.51562 4.2525,6.30989 5.26677,26.70588 1.39214,27.99491 -0.90848,0.30225 -1.03051,-0.26639 -0.48635,-2.2664 z m 40.13662,-6.5843 c -3.88953,-1.07477 -9.9578,-5.30548 -11.28156,-7.86535 -2.88977,-5.5882 -0.4616,-13.72874 5.32379,-17.84831 3.81796,-2.71862 13.97394,-3.07004 16.47395,-0.57002 2.17502,2.17502 0.87177,3.02063 -2.50175,1.62327 -4.58491,-1.89913 -15.04568,0.64369 -15.04568,3.65732 0,0.86556 -0.49601,2.06977 -1.10226,2.67602 -1.9324,1.9324 -1.86722,7.95598 0.11154,10.30756 3.2961,3.91711 7.82847,5.08462 17.27845,4.45077 10.86036,-0.72845 20.27477,0.18509 20.27477,1.96738 0,1.01513 -1.98663,1.2988 -9.14063,1.30518 -5.02734,0.005 -11.25,0.18953 -13.82812,0.41122 -2.57813,0.22168 -5.53125,0.16992 -6.5625,-0.11504 z m -79.44001,-3.81421 c -0.80286,-0.9055 -2.79891,-6.287 -4.43564,-11.95887 -2.80436,-9.71814 -3.00117,-11.42017 -3.4147,-29.53125 -0.71275,-31.21526 -3.99195,-43.74527 -14.77405,-56.45225 -6.94399,-8.18368 -8.98266,-12.7565 -9.00876,-20.207 -0.0163,-4.65752 0.45978,-6.63896 2.2929,-9.54282 1.27242,-2.01564 2.80373,-5.61171 3.40291,-7.99127 1.02616,-4.07523 0.91903,-4.65151 -1.84474,-9.92401 -1.61379,-3.07866 -2.93416,-6.23823 -2.93416,-7.02127 0,-0.78305 1.10587,-3.60603 2.45748,-6.2733 2.2648,-4.46939 2.37018,-5.18357 1.34404,-9.10946 -2.75324,-10.53369 -2.51079,-12.4138 2.28539,-17.72259 3.91255,-4.33073 9.11317,-16.20331 10.73452,-24.50603 1.28233,-6.56658 1.4862,-23.31737 0.29826,-24.50531 -1.27134,-1.27134 -15.53281,-1.99953 -18.26508,-0.93262 -1.44709,0.56507 -3.1376,2.32972 -3.90525,4.07653 -0.74449,1.69408 -4.58904,6.45515 -8.54346,10.58015 -6.32088,6.59355 -12.12586,13.32195 -20.13799,23.34144 -1.27921,1.59971 -2.63134,3.04286 -3.00472,3.207 -0.37338,0.16415 -4.38327,4.59384 -8.91087,9.84375 -4.5276,5.24992 -10.81392,12.08169 -13.96961,15.1817 l -5.73762,5.63638 5.46811,6.03817 c 6.25032,6.90192 9.2618,14.14739 9.2618,22.28344 0,5.02736 -2.80403,12.43687 -4.70655,12.43687 -1.41081,0 -1.1071,-1.44807 1.08175,-5.15791 1.63387,-2.76921 1.91047,-4.37966 1.51025,-8.79333 -0.51797,-5.71218 -3.60908,-12.9732 -5.89656,-13.85099 -0.75014,-0.28786 -1.36389,-0.99215 -1.36389,-1.5651 0,-1.47873 -3.89819,-4.63928 -8.35828,-6.77667 -2.09424,-1.00361 -3.81255,-2.19093 -3.81847,-2.63848 -0.0146,-1.1051 4.13276,-5.85385 14.86467,-17.02012 10.10644,-10.51549 14.81304,-15.57402 29.63753,-31.85365 5.63444,-6.1875 13.11152,-14.19456 16.61574,-17.79346 3.89016,-3.99527 6.37131,-7.33326 6.37131,-8.57157 0,-1.11547 0.72646,-2.30689 1.61435,-2.6476 1.39125,-0.53387 1.42364,-0.75194 0.23437,-1.57793 -0.99139,-0.68856 -1.06482,-1.08739 -0.26076,-1.41638 0.61557,-0.25187 0.86081,-1.13131 0.54499,-1.95433 -0.46326,-1.20724 -0.13609,-1.37244 1.6933,-0.85498 11.16602,3.15844 26.47311,4.36063 28.58845,2.2453 0.33642,-0.33642 -0.26756,-2.03432 -1.34219,-3.7731 -1.07463,-1.73879 -2.22332,-5.45397 -2.55263,-8.25596 l -0.59877,-5.09451 -6.37982,0.0561 c -3.53829,0.0311 -6.99006,0.56255 -7.74995,1.19319 -1.92476,1.59741 -3.81688,8.95368 -3.1069,12.07906 0.57416,2.52743 0.54371,2.55257 -0.89772,0.74118 -2.0539,-2.58108 -1.20697,-8.15539 1.84752,-12.16004 2.75661,-3.61406 2.93486,-4.24618 1.19741,-4.24618 -2.63685,0 -10.95665,-11.33391 -10.95665,-14.92604 0,-1.01107 -0.43508,-2.10719 -0.96683,-2.43584 -1.53586,-0.94921 -0.32051,-11.67181 1.88406,-16.62249 1.38745,-3.11573 2.53295,-4.45313 3.81414,-4.45313 1.00712,0 1.83113,-0.467006 1.83113,-1.037803 0,-0.570788 -0.60432,-0.805903 -1.34294,-0.522469 -0.98564,0.378225 -0.8516,-0.317419 0.5038,-2.61465 1.82394,-3.091336 12.73339,-13.637578 14.10726,-13.637578 0.39004,0 1.76384,-1.054688 3.0529,-2.34375 1.59116,-1.591164 3.37885,-2.34375 5.56732,-2.34375 2.04399,0 3.42719,-0.530666 3.78006,-1.450228 0.30608,-0.797626 1.0895,-1.362783 1.74093,-1.255904 0.65143,0.106878 2.37204,-0.295207 3.82358,-0.893522 1.45153,-0.598315 4.82653,-1.119116 7.5,-1.157336 2.67346,-0.03822 6.75928,-0.378735 9.07959,-0.756702 l 4.21875,-0.68721 -3.67315,-2.241345 c -2.02024,-1.23274 -4.34055,-2.361846 -5.15625,-2.509125 -3.9448,-0.71225 -14.11374,-2.239761 -17.78892,-2.672131 -3.71902,-0.437531 -6.094,-0.130935 -18.2391,2.354554 -1.98408,0.406042 -4.3044,1.46544 -5.15625,2.354219 -1.45193,1.514859 -1.4022,1.57694 0.79492,0.992276 1.94089,-0.516482 1.6186,0.02542 -1.875,3.152657 -4.32372,3.870309 -5.625,4.539986 -5.625,2.894797 0,-0.515625 0.65771,-0.9375 1.46158,-0.9375 0.80387,0 1.18668,-0.444799 0.85069,-0.988441 -0.40816,-0.660415 -1.31796,-0.525154 -2.74149,0.407585 -1.30167,0.852878 -2.46722,1.059416 -2.99579,0.530854 -0.52856,-0.528562 -0.91979,-0.140014 -1.00556,0.998665 -0.0996,1.322679 0.44152,1.863837 1.86384,1.863837 1.55884,0 1.75423,0.25 0.87923,1.125 -1.78708,1.787077 -1.32437,2.624596 1.45313,2.630228 3.30425,0.0067 9.38645,1.688122 10.06233,2.78173 0.29939,0.484427 -0.77937,0.469672 -2.53805,-0.03472 C 264.35758,82.894761 261.39631,82.5 259.45931,82.5 c -1.93699,0 -3.52181,-0.421875 -3.52181,-0.9375 0,-3.467414 -5.75015,2.388685 -9.13206,9.300316 -2.94699,6.022822 -2.80386,6.598793 1.39768,5.624468 6.08369,-1.410778 12.27201,0.600085 9.7152,3.1569 -0.76609,0.766086 -1.34225,0.744386 -2.16832,-0.08166 -1.3546,-1.354603 -11.0625,-1.519144 -11.0625,-0.1875 0,0.515625 -0.64605,0.937502 -1.43567,0.937502 -0.78963,0 -1.66256,0.59124 -1.93986,1.31387 -0.27729,0.72262 -1.31874,1.52687 -2.31432,1.78723 -1.29644,0.339 -1.81015,1.29641 -1.81015,3.3736 0,1.86721 -0.46963,2.90027 -1.31848,2.90027 -0.8507,0 -1.1887,-0.74839 -0.9527,-2.10937 0.20119,-1.16016 -0.29819,-0.0577 -1.10971,2.44979 -1.03208,3.18905 -1.24346,5.5838 -0.70338,7.96875 0.76744,3.38893 0.77394,3.37939 1.07306,-1.57338 0.20323,-3.36521 0.6648,-4.85349 1.4217,-4.58416 0.61641,0.21935 1.02027,1.30152 0.89744,2.40484 -0.12283,1.10331 0.13909,2.00603 0.58203,2.00603 0.44295,0 1.09028,-2.5184 1.43851,-5.59644 0.34825,-3.07805 1.03556,-5.84514 1.52735,-6.14908 1.15981,-0.71681 1.12723,1.10965 -0.18357,10.29061 -0.97035,6.79648 -0.87841,8.33133 0.92277,15.40329 1.10029,4.32004 2.6496,8.32925 3.4429,8.90932 0.79332,0.58009 1.7138,2.74081 2.04554,4.80163 0.55365,3.43949 0.47311,3.6398 -0.98157,2.44145 -2.19332,-1.80684 -2.73462,-0.88594 -0.96461,1.64109 1.16211,1.65915 1.74441,1.86907 2.78624,1.00442 1.01855,-0.84531 1.79629,-0.75642 3.43116,0.39218 6.07804,4.27021 7.02438,5.90463 2.81719,4.86558 -2.07869,-0.51339 -2.3511,-0.40594 -1.40625,0.55461 0.64454,0.65524 1.17188,2.00345 1.17188,2.99603 0,2.86469 -5.30608,1.26327 -9.59212,-2.89497 -13.29171,-12.89545 -17.24716,-34.73752 -10.14383,-56.01442 3.31278,-9.922899 7.16987,-15.984498 14.24565,-22.387709 5.21937,-4.723259 19.29421,-12.765579 22.3653,-12.779464 0.77344,-0.0035 3.09375,-0.614301 5.15625,-1.357343 8.34368,-3.005914 30.66774,-0.839911 37.50305,3.63875 1.2511,0.819756 2.81692,1.507611 3.47959,1.528567 0.66268,0.02095 2.61615,1.245393 4.34106,2.720973 2.99788,2.56454 3.04782,2.710923 1.13234,3.318873 -1.10212,0.349801 -3.56811,0.374652 -5.47995,0.05522 -1.91185,-0.319428 -6.64015,-0.148753 -10.50734,0.37928 -7.97705,1.089199 -23.39704,5.70273 -23.42138,7.007481 -0.008,0.475024 -0.67137,1.58772 -1.47223,2.472658 -1.35077,1.492582 -1.10152,1.69404 3.44539,2.784826 3.2552,0.78091 5.92765,2.20202 7.95669,4.231063 2.93553,2.935525 2.97637,3.075836 1.04233,3.5816 -1.11029,0.290344 -2.659,-0.05822 -3.45372,-0.777333 C 287.61996,91.410663 279.5754,88.125 277.02049,88.125 c -1.20948,0 -2.83187,0.632812 -3.60531,1.40625 -0.77344,0.773437 -2.30856,1.40625 -3.41139,1.40625 -1.52774,0 -1.87346,0.414901 -1.45205,1.742641 0.3246,1.022713 -0.0615,2.252712 -0.93459,2.977306 -0.93238,0.773812 -1.28893,2.026547 -0.95523,3.356156 0.29285,1.166817 0.10904,2.383177 -0.40848,2.703017 -0.51752,0.31985 -0.94094,0.11992 -0.94094,-0.44428 0,-0.72881 -0.53275,-0.74069 -1.84009,-0.0411 -1.01205,0.54163 -1.621,1.55571 -1.35322,2.25352 0.28991,0.75553 -0.33121,1.48268 -1.5355,1.7976 -1.1732,0.3068 -1.75203,0.96624 -1.37856,1.57053 0.35408,0.57292 0.20973,1.56468 -0.3208,2.20391 -0.53144,0.64035 -0.62234,1.716 -0.20244,2.39543 0.51372,0.8312 0.96847,0.13338 1.3951,-2.14082 0.38221,-2.03727 1.17326,-3.37395 1.99674,-3.37395 0.75007,0 1.36377,-0.63281 1.36377,-1.40625 0,-0.77344 0.38539,-1.40625 0.85642,-1.40625 0.47669,0 0.55023,1.14313 0.16586,2.57813 -1.44674,5.40118 2.42209,17.10074 6.95952,21.04598 3.46549,3.0132 3.12902,4.96187 -0.53003,3.06969 -1.57341,-0.81363 -3.0951,-2.09009 -3.38156,-2.83657 -0.68334,-1.78076 -2.19521,-1.747 -2.19521,0.049 0,0.78125 -0.83333,1.40625 -1.875,1.40625 -2.67335,0 -2.32349,1.57069 0.46875,2.10445 1.28906,0.24642 2.34375,0.0597 2.34375,-0.41478 0,-0.47456 0.40345,-0.61349 0.89656,-0.30872 0.49311,0.30475 0.70338,1.06793 0.46729,1.69595 -0.2361,0.62802 0.88523,1.88818 2.49186,2.80038 2.51587,1.42843 2.84273,1.45419 2.35595,0.18568 -0.32557,-0.84842 -0.17228,-1.23002 0.36157,-0.90007 0.50972,0.31502 0.92677,1.18068 0.92677,1.92369 0,1.46049 0.8779,1.67469 3.20457,0.78187 1.8812,-0.72189 1.9332,-2.24345 0.0767,-2.24345 -0.77344,0 -1.40625,-0.31641 -1.40625,-0.70313 0,-0.38671 2.42578,-0.70312 5.39062,-0.70312 6.24452,0 10.31662,-2.48571 14.89311,-9.0911 2.40311,-3.46848 2.68876,-4.67113 2.72067,-11.45463 0.0241,-5.12 -0.38596,-8.09244 -1.26371,-9.16082 -0.71466,-0.86985 -1.0222,-2.03001 -0.68345,-2.57813 0.33875,-0.548108 0.19928,-0.99657 -0.30994,-0.99657 -1.04895,0 -3.8723,-2.613525 -3.8723,-3.584531 0,-0.350953 2.99969,-0.695747 6.66598,-0.7662 6.49534,-0.124828 6.70533,-0.05606 8.20313,2.687072 0.84542,1.548337 2.49333,4.272589 3.662,6.053879 1.16868,1.78129 1.88206,3.63156 1.58531,4.11174 -0.29677,0.48017 -0.0928,0.87304 0.45325,0.87304 0.54606,0 0.99283,0.42188 0.99283,0.9375 0,2.11745 -2.82128,0.74452 -3.37137,-1.64062 -0.32704,-1.41797 -1.65807,-4.16016 -2.95787,-6.09375 -1.95812,-2.91293 -2.91121,-3.51563 -5.55949,-3.51563 -3.18528,0 -3.19398,0.01209 -2.53893,3.51563 1.24863,6.67839 1.91313,8.20436 3.71383,8.52849 3.19136,0.57446 3.95459,2.21012 0.87008,1.86464 -2.64038,-0.29573 -2.81607,-0.11421 -2.87086,2.96624 -0.0709,3.9874 -1.87487,9.72357 -4.34692,13.82226 -1.67369,2.77498 -1.70421,3.17092 -0.34891,4.52623 2.11025,2.11024 3.60673,5.14273 2.89103,5.85843 -0.7482,0.74819 -4.18095,-3.57413 -4.20974,-5.30067 -0.0239,-1.43537 -0.10697,-1.40907 -5.31117,1.68188 -3.57727,2.12465 -3.91968,2.67735 -4.33471,6.99668 -0.48943,5.09364 0.61663,9.38081 3.11092,12.05811 1.52952,1.64174 1.68712,1.64226 4.37774,0.0144 7.47214,-4.52063 13.38637,-9.27903 13.38637,-10.77026 0,-0.41915 -1.02979,-0.7621 -2.28842,-0.7621 -1.25863,0 -2.54916,-0.42188 -2.86783,-0.9375 -0.33547,-0.54279 0.56683,-0.9375 2.14312,-0.9375 3.53836,0 5.26293,-2.07788 7.12257,-8.58179 2.00355,-7.00723 1.99689,-7.0354 -1.56421,-6.61966 -2.12418,0.24799 -3.79678,-0.23708 -5.39063,-1.56331 -1.27097,-1.05757 -1.80841,-1.93689 -1.19431,-1.95405 0.6141,-0.0172 1.37729,0.39069 1.69596,0.90631 0.31867,0.51563 2.36857,0.9375 4.55533,0.9375 3.86909,0 6.24072,-1.23491 6.21157,-3.23437 -0.008,-0.57105 -0.31396,-0.5131 -0.72788,0.138 -0.39243,0.61732 -1.23245,0.80167 -1.86673,0.40966 -1.1726,-0.7247 -0.59148,-9.51682 0.62701,-9.48644 1.5896,0.0397 2.71711,1.80209 3.70499,5.79142 1.47671,5.96334 1.37538,7.31426 -0.55117,7.34774 -1.5625,0.0272 -1.5625,0.074 0,0.98408 1.81212,1.05546 2.22406,5.07868 0.62145,6.06914 -0.56056,0.34645 -1.48869,0.1604 -2.0625,-0.41341 -1.70063,-1.70063 -2.68752,-1.18949 -1.60582,0.83168 0.55191,1.03125 1.62143,1.875 2.37673,1.875 2.77639,0 1.30019,2.61754 -1.80468,3.20002 -2.21224,0.41502 -3.34789,1.23016 -3.7372,2.68246 -0.99759,3.72152 -0.6641,4.29782 2.46202,4.25451 1.67579,-0.0232 3.86322,0.11224 4.86096,0.30102 1.35971,0.25727 1.99196,-0.36121 2.52426,-2.46926 0.39059,-1.54687 1.64316,-5.34375 2.78349,-8.4375 2.64235,-7.16875 2.89512,-16.91521 0.53222,-20.52146 -1.84357,-2.81364 -1.38718,-4.32229 1.30753,-4.32229 1.00082,0 1.81967,-0.41619 1.81967,-0.92488 0,-0.50868 2.32031,-3.66004 5.15625,-7.00301 2.83594,-3.342988 5.15625,-6.269076 5.15625,-6.502429 0,-0.644578 -5.24292,-2.130013 -13.82813,-3.917797 C 318.48047,90.453549 315,89.520648 315,89.266268 c 0,-0.254379 2.47174,-3.04101 5.49275,-6.192512 3.02101,-3.151503 7.0174,-7.417506 8.88088,-9.480006 1.86348,-2.0625 3.38814,-3.328125 3.38814,-2.8125 0,0.515625 -1.90694,3.046875 -4.23764,5.625 -6.91869,7.653168 -9.86651,11.551142 -9.09447,12.025861 0.39962,0.245727 5.15628,1.385001 10.57034,2.531721 5.41406,1.14672 10.0088,2.23199 10.21053,2.411712 0.51394,0.457875 -6.67738,9.652026 -10.14599,12.971726 -3.66383,3.50653 -3.61912,4.27773 0.24796,4.27773 1.71875,0 3.43603,0.31103 3.81617,0.69117 0.38014,0.38014 1.36667,0.69655 2.1923,0.70313 3.32933,0.0265 5.83324,18.86204 3.15911,23.76412 -1.78508,3.27231 -2.03891,2.10381 -0.9763,-4.4944 0.78787,-4.89221 0.67804,-6.83302 -0.62028,-10.96069 -0.86772,-2.7587 -2.10759,-5.01583 -2.75528,-5.01583 -0.64769,0 -1.42044,-0.63281 -1.71725,-1.40625 -0.35401,-0.92254 -1.81713,-1.40625 -4.2536,-1.40625 l -3.71399,0 0.87207,3.04069 c 1.50084,5.23314 0.96344,11.2573 -1.61085,18.05712 -1.3656,3.60714 -2.68131,8.20098 -2.92379,10.20853 l -0.4409,3.6501 4.446,-0.50113 c 2.44529,-0.27563 4.71022,-0.86348 5.03317,-1.30634 0.32294,-0.44288 1.28178,-1.34798 2.13075,-2.01135 1.35,-1.05486 1.52636,-0.90274 1.40625,1.21293 -0.1176,2.07157 -0.8371,2.62262 -5.00894,3.83616 -4.98827,1.45105 -10.81853,1.07407 -13.24473,-0.85639 -0.94329,-0.75056 -2.12718,0.0487 -4.93075,3.32853 -6.50741,7.61302 -18.8094,13.94328 -27.10916,13.94963 l -4.21875,0.003 -0.0969,13.77227 c -0.0956,13.59338 -0.14149,13.88186 -3.52901,22.20977 -1.88766,4.64062 -5.32451,10.96045 -7.63747,14.04406 -4.42393,5.89794 -5.3038,9.808 -3.12372,13.88152 1.55808,2.9113 1.07621,9.21531 -1.06509,13.93419 -1.01771,2.24275 -1.85964,5.18099 -1.87096,6.52942 -0.0269,3.2067 3.03124,7.01356 6.29158,7.83186 2.24568,0.56362 2.39257,0.79681 1.09995,1.74597 -0.82053,0.60251 -2.0351,2.78298 -2.69905,4.84548 -0.66396,2.0625 -2.41789,6.36912 -3.89763,9.57028 -1.47974,3.20115 -2.69044,7.37095 -2.69044,9.26623 0,4.51358 1.88185,10.69474 3.25601,10.69474 0.59632,0 1.832,1.56811 2.74595,3.48469 0.91395,1.91656 2.40849,4.00773 3.32121,4.64701 4.21793,2.95437 13.17683,22.46029 13.17683,28.68951 0,1.35383 0.43898,4.50841 0.97552,7.01019 l 0.97552,4.5487 5.59397,1.24101 c 4.34003,0.96284 6.22263,1.95703 8.39854,4.43526 4.42752,5.04266 5.3955,7.00726 6.10194,12.38437 0.9064,6.8991 -1.37753,6.16093 -2.78765,-0.90097 -0.56307,-2.81986 -1.95406,-6.4335 -3.09108,-8.03032 -2.67376,-3.75494 -7.90889,-6.26238 -11.45069,-5.48447 -3.48558,0.76556 -4.14107,4.28064 -3.36168,18.02707 0.70742,12.47697 2.71955,23.79731 5.67906,31.95069 1.23972,3.41538 2.13051,6.3333 1.97954,6.48426 -0.15096,0.15098 -0.93137,-0.46638 -1.73425,-1.37188 z M 265.3125,161.61845 c 0,-1.08145 0.46294,-1.30536 1.64062,-0.79352 2.45009,1.06484 14.29681,1.69892 14.29731,0.76524 2.4e-4,-0.44491 -2.42554,-0.8682 -5.39062,-0.94065 -2.96508,-0.0725 -6.86762,-0.40187 -8.67231,-0.73204 -3.54069,-0.64778 -6.26205,0.48079 -5.22103,2.16521 0.97457,1.57688 3.34603,1.24787 3.34603,-0.46424 z m 35.64363,-4.59896 c 5.09505,-3.21636 4.69913,-3.63386 -0.72176,-0.76112 -5.12332,2.71505 -5.65443,3.11663 -4.12199,3.11663 0.61181,0 2.79149,-1.05998 4.84375,-2.35551 z m 5.32685,-7.95699 c 1.32083,-1.60484 1.54479,-2.82183 0.51389,-2.79248 -0.38671,0.011 -1.94256,1.80397 -3.45742,3.98437 -2.51746,3.62346 -2.55908,3.80313 -0.48408,2.08936 1.24863,-1.03125 2.79105,-2.50781 3.42761,-3.28125 z m -63.98312,-6.68228 c 1.64276,0.27109 1.69097,0.13421 0.46875,-1.33081 -0.7493,-0.89816 -2.28726,-3.57591 -3.4177,-5.95058 -1.13043,-2.37467 -2.0647,-3.68477 -2.07615,-2.91133 -0.0114,0.77344 0.5821,2.46094 1.31899,3.75 1.58652,2.77532 1.77464,4.6875 0.46116,4.6875 -0.5198,0 -1.6273,-1.705 -2.46111,-3.7889 -1.87784,-4.69319 -2.50949,-4.38764 -1.15842,0.56037 1.22069,4.47049 2.53902,6.24844 3.96772,5.35098 0.58611,-0.36817 1.88965,-0.53343 2.89676,-0.36723 z m 44.4831,-7.48861 c 4.48969,-1.56512 3.09053,-1.77685 -2.25171,-0.34075 -2.57813,0.69305 -3.80123,1.28856 -2.71802,1.32337 1.08321,0.0348 3.31959,-0.40738 4.96973,-0.98262 z m -22.42965,-12.574 c -0.90318,-1.08826 -0.89859,-1.67749 0.0217,-2.78636 0.84174,-1.01424 0.86532,-1.40625 0.0846,-1.40625 -0.59538,0 -1.50164,-0.94922 -2.01393,-2.10937 -0.72114,-1.63317 -0.82269,-1.09313 -0.44984,2.39208 0.304,2.84162 0.14006,4.2904 -0.44462,3.92905 -1.283,-0.79294 -1.16786,1.73407 0.13854,3.04047 1.68563,1.68563 4.20244,-1.2054 2.66358,-3.05962 z m -1.68074,-12.11547 c 0.29948,-2.56526 0.12656,-3.02692 -0.83493,-2.22896 -1.29207,1.07233 -1.6237,3.80327 -0.58764,4.83932 0.95917,0.95917 1.01858,0.85017 1.42257,-2.61036 z M 244.275,92.312705 c 1.39585,-2.853012 2.29336,-5.431842 1.99447,-5.730731 -0.82875,-0.828749 -4.38699,5.486363 -4.39096,7.793029 -0.002,1.117181 -0.53085,2.244038 -1.17539,2.504109 -0.82096,0.331266 -0.84162,0.495029 -0.069,0.546872 0.60661,0.04069 2.24499,-2.260265 3.64083,-5.113279 z m -5.2125,2.583398 c 0,-0.916528 0.66435,-2.614891 1.47633,-3.774153 0.81198,-1.159263 1.30186,-2.624226 1.08861,-3.255475 -0.21323,-0.631249 -1.03506,0.1179 -1.8263,1.664775 -2.19888,4.298859 -2.8748,7.03125 -1.73932,7.03125 0.55038,0 1.00068,-0.749878 1.00068,-1.666397 z M 72.846641,391.94517 c -10.598777,-9.387 -14.198755,-13.09306 -13.447773,-13.84404 0.331845,-0.33184 3.678458,2.31512 7.436921,5.88214 8.652269,8.21154 10.505702,9.6656 14.388009,11.28774 3.299944,1.3788 4.335557,4.14934 1.510577,4.04118 -0.902344,-0.0346 -5.351824,-3.34971 -9.887734,-7.36702 z m -7.393631,1.1017 c -2.978443,-3.20245 -5.846253,-7.65362 -5.289679,-8.2102 0.229524,-0.22953 2.873232,2.10396 5.874909,5.18551 4.190934,4.30245 5.034603,5.60282 3.635074,5.60282 -1.002385,0 -2.901522,-1.16016 -4.220304,-2.57813 z m 183.18766,-2.23046 c 0.17045,-1.27284 1.14369,-3.20994 2.16275,-4.30468 1.01906,-1.09473 3.11846,-4.4111 4.66533,-7.36972 2.50323,-4.78779 2.80838,-6.26486 2.77508,-13.43253 -0.0336,-7.21574 -0.34307,-8.61382 -2.97645,-13.44386 -1.99275,-3.65497 -2.53586,-5.39062 -1.68684,-5.39062 2.07958,0 5.48041,8.38507 6.06481,14.95336 0.72993,8.20379 -0.23674,13.0519 -4.17006,20.91415 -3.76492,7.52564 -3.71701,7.36335 -1.97637,6.6954 0.72129,-0.27678 1.61243,-0.0162 1.98033,0.57907 0.4517,0.73087 -0.084,0.98364 -1.64984,0.77845 -1.27531,-0.16712 -3.03422,0.28994 -3.9087,1.0157 -1.42881,1.1858 -1.55855,1.08499 -1.28004,-0.99472 z M 84.364885,386.84915 C 82.03901,385.14174 75.5267,378.80784 69.893086,372.77381 57.212957,359.19244 51.402932,349.6875 55.78125,349.6875 c 0.773437,0 1.40625,0.64684 1.40625,1.43741 0,1.34012 3.211263,7.95782 5.867738,12.09213 2.514294,3.91302 14.556478,15.90973 20.585002,20.50727 5.815489,4.43508 7.515262,6.31388 5.656635,6.25245 -0.386719,-0.0128 -2.606114,-1.42021 -4.93199,-3.12761 z m 226.465245,-1.77103 c -0.19856,-0.64453 -0.61941,-2.34864 -0.9352,-3.78691 -0.31581,-1.43828 -1.8276,-3.92663 -3.35956,-5.52967 -1.95507,-2.0458 -2.78537,-3.8513 -2.78537,-6.05683 0,-1.72822 0.42187,-3.14221 0.9375,-3.14221 0.51562,0 0.9375,0.98115 0.9375,2.18033 0,1.19918 1.02059,3.13913 2.26798,4.311 2.59774,2.44044 6.52359,10.92733 5.68351,12.28659 -0.78971,1.27778 -2.31683,1.13194 -2.74636,-0.2623 z M 77.242083,369.80033 C 71.828244,364.05999 59.0625,348.00173 59.0625,346.93189 c 0,-0.54691 0.632812,-0.99439 1.40625,-0.99439 0.773437,0 1.40625,0.82132 1.40625,1.82514 0,1.86642 9.416358,13.28827 16.732473,20.29618 2.640817,2.52956 3.697842,4.13835 3.001707,4.56858 -0.619028,0.38258 -2.470243,-0.81581 -4.367097,-2.82707 z M 220.98555,356.25 c 0.28413,-5.41406 0.6708,-10.01953 0.85927,-10.23438 0.68389,-0.77959 0.21366,12.67573 -0.57062,16.32813 -0.53737,2.50247 -0.6334,0.47524 -0.28865,-6.09375 z m -125.8293,0.23449 c -11.060429,-1.2927 -27.808611,-6.01963 -26.382239,-7.446 0.216464,-0.21646 3.069491,0.29983 6.340061,1.14732 10.101265,2.6175 20.783412,4.20808 25.198428,3.75207 11.97263,-1.23662 16.875,-1.41673 16.875,-0.62 0,1.73729 -15.36502,3.94574 -22.03125,3.16661 z m 34.66157,-1.03214 C 125.752,354.06716 107.0601,343.11257 103.125,339.80873 102.35156,339.15937 97.609134,336.26488 92.586265,333.37654 85.65647,329.39163 82.547344,328.125 79.69564,328.125 c -2.066977,0 -3.75814,0.42187 -3.75814,0.9375 0,0.51562 0.612504,0.9375 1.361121,0.9375 2.813026,0 7.884636,6.58585 9.037012,11.7352 1.442026,6.44366 0.824682,7.9523 -3.254122,7.9523 -2.421843,0 -3.807331,-0.68929 -5.551184,-2.76173 C 75.130799,344.07409 71.25,333.22794 71.25,329.37337 c 0,-1.96566 -0.425008,-2.18587 -4.21875,-2.18587 -2.320313,0 -4.21875,-0.3375 -4.21875,-0.75 0,-3.24453 8.458349,-3.99557 16.939218,-1.50408 2.800617,0.82276 10.365469,4.37415 16.810782,7.89197 9.34372,5.09977 13.01981,6.59191 18.13838,7.36246 5.65056,0.85064 11.75765,3.35362 10.71838,4.3929 -0.20264,0.20263 -1.82128,-0.004 -3.59698,-0.45794 -6.17392,-1.58028 -10.25978,-2.02704 -10.25978,-1.12187 0,0.98327 20.22938,11.37406 22.14367,11.37406 0.65074,0 1.42589,0.39273 1.72254,0.87272 1.04962,1.69833 -1.00648,1.77331 -5.61089,0.20463 z m 128.96063,-11.88889 c 4.9301,-5.24784 2.88332,-20.75021 -3.68957,-27.945 l -2.43263,-2.66279 2.34375,0.31904 c 4.56109,0.62088 9.24027,13.21722 8.61596,23.19412 -0.24311,3.88513 -3.53038,9.46867 -5.57459,9.46867 -1.17189,0 -1.01329,-0.51085 0.73708,-2.37404 z M 219.833,329.98259 c -0.32459,-0.5252 -0.75326,-5.69317 -0.95258,-11.48437 -0.28967,-8.41627 -0.19657,-9.49465 0.46386,-5.37322 1.04876,6.54474 1.97661,17.8125 1.46678,17.8125 -0.21334,0 -0.65347,-0.4297 -0.97806,-0.95491 z m -95.64949,-13.21564 c -2.55875,-2.63755 -6.33976,-5.58141 -8.40226,-6.54191 -2.0625,-0.9605 -3.11719,-1.75772 -2.34375,-1.77161 2.07072,-0.0371 -3.26035,-4.2458 -9.48296,-7.48635 -15.199072,-7.91522 -28.779115,-9.6814 -39.73579,-5.16792 -3.09375,1.27443 -6.129323,2.31911 -6.745719,2.3215 -0.616396,0.003 -1.671084,1.12558 -2.34375,2.49599 -2.663261,5.42579 -7.780194,5.15012 -5.858004,-0.3156 0.631686,-1.79619 2.908142,-3.61716 7.917049,-6.33295 7.00923,-3.80036 7.061512,-3.81185 17.342924,-3.81185 9.794141,0 10.778008,0.18461 19.573556,3.67277 5.093588,2.02002 12.404144,5.7246 16.245694,8.23238 6.52494,4.25953 19.962,16.83051 19.962,18.67537 0,1.72458 -1.62724,0.67059 -6.12899,-3.96982 z m 84.49204,-8.19709 c -0.73168,-1.1839 0.34461,-15.93265 1.48056,-20.28861 1.23509,-4.73611 3.36808,-8.90625 4.55546,-8.90625 0.50239,0 0.91343,0.59766 0.91343,1.32813 0,0.73046 0.52734,1.50363 1.17188,1.71814 0.81997,0.2729 1.21199,3.18195 1.30547,9.6875 0.13105,9.11956 -0.0446,8.63895 -1.14234,-3.1244 -0.35223,-3.77479 -0.96414,-5.85937 -1.71996,-5.85937 -2.89378,0 -5.33381,10.64137 -4.56801,19.92187 0.34834,4.22158 0.18577,6.32813 -0.48836,6.32813 -0.55578,0 -1.23445,-0.36232 -1.50813,-0.80514 z M 103.125,304.49627 c -12.721187,-5.9339 -24.685457,-7.23355 -37.872162,-4.11398 -3.556251,0.8413 -6.679693,1.31585 -6.940983,1.05457 -0.26129,-0.26129 2.015558,-1.59999 5.059662,-2.97489 10.228616,-4.61986 25.577571,-2.91959 39.720443,4.4 10.09497,5.22462 10.11749,6.33827 0.033,1.6343 z m 228.88839,-1.64492 c -2.75982,-0.43721 -6.76763,-1.45466 -8.90625,-2.261 -2.13861,-0.80633 -6.62626,-1.79637 -9.97253,-2.20008 -3.34628,-0.40371 -6.01459,-1.1559 -5.92959,-1.67152 0.085,-0.51563 3.24475,-1.8448 7.02165,-2.95373 3.77689,-1.10893 8.90605,-2.93715 11.39812,-4.06271 5.39828,-2.43817 6.72169,-2.10085 1.76007,0.44862 -1.91323,0.98309 -4.17156,2.36005 -5.0185,3.0599 -0.84694,0.69985 -2.74538,1.60206 -4.21875,2.00492 -2.56106,0.70027 -2.45213,0.79872 2.47739,2.23904 15.65088,4.57293 17.31832,4.54737 15.94406,-0.24441 -1.1568,-4.03352 0.46254,-8.09588 3.81949,-9.58182 5.19075,-2.29765 2.5144,-3.50948 -3.77015,-1.70709 -4.87742,1.39882 -4.63673,0.30553 0.40887,-1.85726 8.09598,-3.47035 16.14964,-5.05512 20.96187,-4.12481 5.95251,1.15076 6.06992,3.65435 0.17137,3.65435 -4.17424,0 -4.18468,0.008 -4.85881,3.90131 -0.73333,4.2349 -4.37628,10.59966 -6.07754,10.61833 -0.58139,0.007 -1.63608,0.71345 -2.34375,1.57126 -1.17379,1.42284 -0.95771,1.50512 2.46334,0.938 2.0625,-0.34191 4.59375,-0.85301 5.625,-1.13579 1.91087,-0.52398 6.08003,1.77686 5.06285,2.79404 -0.96781,0.96782 -20.76936,1.40197 -26.01821,0.57045 z m 10.10835,-9.53671 c -1.02636,-1.91779 -0.92435,-1.97247 2.54515,-1.36452 l 3.61436,0.63334 -2.68529,-1.44798 c -3.22826,-1.74077 -3.40889,-1.74314 -5.61251,-0.0737 -1.47347,1.11628 -1.54421,1.53078 -0.46875,2.74703 2.02692,2.2923 3.90753,1.93583 2.60704,-0.49416 z m -208.78127,1.90785 c -6.57243,-9.8604 -7.94041,-12.09749 -7.39759,-12.09749 0.57282,0 10.15171,13.54174 11.77091,16.64062 2.26101,4.32719 -0.086,1.88913 -4.37332,-4.54313 z m 162.54703,-9.11307 c -0.83594,-1.35258 0.0484,-1.72687 5.96859,-2.5261 7.33606,-0.99036 11.28543,-2.58347 18.28377,-7.37534 7.93987,-5.43656 14.50958,-7.84543 24.48954,-8.97943 6.14166,-0.69786 9.62986,-0.60597 14.75384,0.3887 7.12757,1.38361 13.23091,3.61022 14.20173,5.18105 0.86159,1.39407 -1.20827,1.12193 -7.02247,-0.9233 -6.41941,-2.25813 -17.89971,-2.44874 -24.66759,-0.40958 -5.59103,1.68457 -7.78968,2.59741 -17.62995,7.31958 -10.65814,5.11467 -27.11758,9.36296 -28.37746,7.32442 z m -160.57686,-7.88364 c -1.77148,-2.36688 -10.72774,-22.49618 -10.23057,-22.99335 0.27995,-0.27994 3.05641,4.8889 6.16993,11.48632 5.12345,10.85637 6.50602,14.77428 4.06064,11.50703 z m 141.42367,-23.27246 c 0.18043,-0.54129 3.27418,-3.51246 6.875,-6.6026 10.20483,-8.75756 27.73591,-16.58234 43.88288,-19.58659 10.49105,-1.95193 33.04829,-0.11938 34.87301,2.83309 0.7053,1.14119 -1.18656,1.11526 -9.39645,-0.12876 -3.60938,-0.54692 -8.88281,-1.10727 -11.71875,-1.24523 -5.4145,-0.26341 -19.72505,1.64045 -25.3125,3.36756 -6.34116,1.96007 -17.93514,6.59907 -17.52292,7.01128 0.2292,0.22921 4.16016,-0.89429 8.73545,-2.49666 13.3429,-4.673 33.16247,-8.02308 33.16247,-5.60541 0,0.51562 -0.94922,0.94085 -2.10938,0.94493 -4.41306,0.0156 -24.02221,4.6464 -32.0881,7.57784 -7.81216,2.83923 -22.45828,10.53135 -25.87634,13.5902 -1.72957,1.54781 -3.9797,1.76636 -3.50437,0.34035 z M 91.98592,228.98437 c 0.09129,-4.43655 0.237582,-4.89285 0.82658,-2.57812 1.063378,4.17902 1.063378,7.96875 0,7.96875 -0.529164,0 -0.889188,-2.34793 -0.82658,-5.39063 z m 186.61465,2.69348 c 2.38516,-2.95006 5.46193,-5.24963 5.46193,-4.08223 0,1.19277 -5.4231,6.77938 -6.58096,6.77938 -0.5839,0 -0.0803,-1.21372 1.11903,-2.69715 z m 6.4041,-6.44348 c 0.003,-0.38671 2.63929,-2.46909 5.85937,-4.6275 14.73942,-9.87975 30.15809,-13.82546 46.40158,-11.87439 8.49543,1.02042 5.38186,1.95602 -6.5625,1.97196 -15.70956,0.021 -25.4979,2.89988 -38.36691,11.28437 -6.11752,3.98572 -7.34005,4.52692 -7.33154,3.24556 z m 4.68283,-29.34164 c 0,-1.87357 4.88443,-5.49181 12.96852,-9.60669 11.47966,-5.84325 18.15975,-7.46589 31.09398,-7.55294 9.12067,-0.0614 12.22523,0.33404 20.15625,2.5673 12.45073,3.50593 12.45277,3.50669 10.97261,4.05746 -0.66819,0.24863 -3.83225,-0.21175 -7.03125,-1.02309 -8.29104,-2.10279 -24.30732,-3.57859 -32.53511,-2.9979 -9.82641,0.69351 -21.30269,5.30889 -30.32479,12.1956 -4.72556,3.60712 -5.30021,3.86301 -5.30021,2.36026 z M 179.42084,192.91328 C 176.13455,188.27505 172.85358,180 174.30085,180 c 0.80826,0 6.86636,13.20779 6.31226,13.76189 -0.19026,0.19026 -0.72678,-0.19162 -1.19227,-0.84861 z M 171.954,178.03662 c -0.55811,-0.72483 -1.58166,-2.79443 -2.27453,-4.59912 -0.69289,-1.80469 -3.33271,-7.42698 -5.86629,-12.49397 -4.22521,-8.45017 -5.30086,-11.89848 -2.75447,-8.83026 2.12916,2.56547 12.46013,24.42721 12.19185,25.7996 -0.23937,1.22449 -0.43465,1.24313 -1.29656,0.12375 z m 4.02879,-12.18225 c -7.45514,-15.45748 -11.24517,-24.34199 -10.64153,-24.94564 0.43426,-0.43426 8.61575,15.82929 14.64477,29.11156 5.47477,12.06121 2.15885,8.61054 -4.00324,-4.16592 z m -16.53133,-4.9494 c -2.26912,-3.67152 -2.51278,-5.03791 -0.61795,-3.46534 1.23018,1.02096 3.69407,6.62287 2.91293,6.62287 -0.18893,0 -1.22167,-1.42089 -2.29498,-3.15753 z m -5.4507,-2.67919 c -1.7547,-2.19728 -4.11829,-7.40444 -3.79763,-8.36642 0.17435,-0.52307 1.46059,1.26836 2.85829,3.98095 2.4578,4.76994 2.90182,6.84293 0.93934,4.38547 z m 9.35757,-8.46016 c -2.18128,-2.73752 -7.78844,-14.12482 -7.4373,-15.104 0.21062,-0.58733 2.31,2.83447 4.66527,7.604 4.15271,8.40944 4.7203,9.94512 2.77203,7.5 z m -8.76605,-6.5625 c -4.29475,-8.95786 -13.31625,-25.9314 -16.56798,-31.17187 -1.59974,-2.57812 -4.37605,-7.21875 -6.16958,-10.3125 -1.79354,-3.09375 -4.36521,-7.246988 -5.71484,-9.229417 -1.34964,-1.982431 -2.05793,-3.458993 -1.57397,-3.28125 0.88975,0.326783 14.48747,20.535597 17.2707,25.667567 0.8294,1.52933 3.01128,5.78207 4.84863,9.45055 1.83734,3.66846 5.44322,10.41846 8.01305,15 4.9158,8.76394 5.28431,9.7363 3.68995,9.7363 -0.54272,0 -2.2509,-2.63672 -3.79596,-5.85938 z m -9.19253,-0.9375 c -1.72559,-3.22265 -4.91512,-9.23437 -7.08784,-13.35937 -2.17273,-4.125 -5.32848,-10.03125 -7.0128,-13.125 -9.9927,-18.354563 -9.86943,-18.095672 -6.95053,-14.59694 1.47547,1.76855 5.16808,7.88573 8.2058,13.59375 13.17989,24.76555 17.49357,33.34694 16.76282,33.34694 -0.429,0 -2.19185,-2.63672 -3.91745,-5.85938 z m 30.54277,-2.34375 c -1.15292,-2.44921 -3.60324,-6.77343 -5.44518,-9.60937 -4.54412,-6.99637 -13.0838,-22.72604 -12.60045,-23.20939 0.21493,-0.21494 1.12488,0.80597 2.02208,2.26868 0.89722,1.4627 2.55307,4.13602 3.67967,5.94071 5.80916,9.30561 12.78811,22.14681 14.5385,26.75068 1.52049,3.99921 -0.005,2.51122 -2.19462,-2.14131 z m -37.02262,-2.34375 c -1.9745,-3.89775 -5.54103,-10.04872 -6.51756,-11.24046 -1.20446,-1.4699 -11.46484,-21.76725 -11.46484,-22.68005 0,-1.69392 3.04881,2.71248 6.83632,9.88046 2.28662,4.3275 6.35698,11.98146 9.04523,17.0088 2.68825,5.02735 4.50112,9.14063 4.02858,9.14063 -0.47254,0 -1.34002,-0.94922 -1.92773,-2.10938 z m 38.2362,-5.59094 c -2.21418,-4.27263 -5.03619,-9.38142 -6.27113,-11.35286 -1.23494,-1.97143 -2.09571,-4.03336 -1.91281,-4.58205 0.1829,-0.5487 2.64643,3.17366 5.47452,8.27192 5.70863,10.29109 7.68859,14.47804 7.11686,15.04977 -0.20991,0.20992 -2.19326,-3.11414 -4.40744,-7.38678 z m -16.77613,1.29014 c -5.51225,-9.10523 -13.00496,-23.58982 -12.20274,-23.58982 1.20808,0 16.49574,27.83349 15.71228,28.60657 -0.16267,0.1605 -1.74196,-2.09703 -3.50954,-5.01675 z m -13.9385,2.6184 c -1.4484,-2.31926 -5.40252,-9.58124 -11.71797,-21.52072 -2.59105,-4.89844 -5.19474,-9.53906 -5.78597,-10.3125 -1.20964,-1.58242 -3.44712,-6.5625 -2.94843,-6.5625 0.17813,0 2.56756,3.48047 5.30982,7.73438 5.98705,9.28735 18.22951,32.57812 17.12422,32.57812 -0.43154,0 -1.32329,-0.86255 -1.98166,-1.91678 z m 104.07942,-0.11462 c 0.3892,-1.16761 7.12628,-5.02468 7.70395,-4.41062 0.1802,0.19155 -1.5639,1.51556 -3.87576,2.94226 -2.31188,1.42668 -4.03455,2.08744 -3.82819,1.46836 z m -121.22825,-8.98422 c -1.71194,-3.48047 -4.61467,-8.85938 -6.45052,-11.95313 -4.72416,-7.96114 -6.04642,-10.70195 -5.45047,-11.2979 0.66034,-0.66033 2.70256,2.77069 10.49138,17.62603 3.44695,6.57421 5.87456,11.95312 5.3947,11.95312 -0.47986,0 -2.27316,-2.84766 -3.98509,-6.32812 z m 24.14709,4.68749 c -0.23149,-0.38671 -2.61242,-4.89068 -5.29095,-10.00881 -2.67852,-5.11812 -6.5556,-11.84335 -8.61573,-14.94495 -4.15764,-6.25944 -8.60327,-14.647887 -8.05404,-15.197118 0.19528,-0.195289 1.75054,1.850565 3.45612,4.546339 1.70559,2.695781 4.97245,7.854539 7.25969,11.463919 5.27856,8.32976 13.58269,24.84375 12.49281,24.84375 -0.45484,0 -1.01639,-0.31641 -1.2479,-0.70313 z m 29.53711,-12.02445 c -2.28894,-4.71133 -2.37825,-5.08492 -1.21558,-5.08492 0.45307,0 1.34801,1.26563 1.98874,2.8125 0.64073,1.54688 1.53567,2.8125 1.98874,2.8125 1.04271,0 1.08317,2.54153 0.0506,3.17968 -0.42523,0.26281 -1.69085,-1.41108 -2.8125,-3.71976 z M 248.4375,116.25 c 1.84265,-1.19081 4.6875,-1.19081 4.6875,0 0,0.51563 -1.37109,0.93104 -3.04688,0.92315 -2.31208,-0.0109 -2.70774,-0.23352 -1.64062,-0.92315 z m -65.78918,-3.04687 c -1.27215,-1.16016 -4.60328,-3.26767 -7.40252,-4.68336 -2.79926,-1.41569 -5.72236,-2.95829 -6.4958,-3.42799 -2.39824,-1.45642 -12.83045,-5.71678 -13.99852,-5.71678 -0.7466,0 -0.63196,0.67936 0.35161,2.0836 0.80267,1.14597 1.45941,2.502 1.45941,3.01339 0,1.58155 -2.64666,-1.7039 -2.97314,-3.69074 -0.30444,-1.852706 -10.54713,-8.097106 -15.09758,-9.204163 -4.1345,-1.005866 -16.1677,-5.475808 -17.03865,-6.329309 -0.48985,-0.480028 -1.98268,-0.872778 -3.31741,-0.872778 -1.33472,0 -4.08173,-0.84375 -6.10447,-1.875 -2.02274,-1.03125 -4.61572,-1.875 -5.76219,-1.875 -1.14647,0 -3.22516,-0.433678 -4.6193,-0.963729 -2.560332,-0.973439 -4.438079,-0.424515 -2.669335,0.780329 1.050395,0.715516 6.957075,10.160015 6.957075,11.124034 0,1.523043 -4.10242,-3.363712 -6.771337,-8.065951 C 97.537116,80.629545 95.862984,78.140625 95.445872,77.96875 95.028769,77.796875 94.6875,77.215613 94.6875,76.677054 c 0,-1.605075 6.8088,-0.07588 22.47483,5.047633 26.19065,8.565556 51.28521,19.281453 62.46596,26.674243 2.63149,1.73996 5.26821,3.16357 5.85938,3.16357 0.59115,0 1.07483,0.84375 1.07483,1.875 0,2.43261 -1.05933,2.36918 -3.91418,-0.23437 z m -80.21377,-3.72735 c -0.52671,-0.657 -1.95792,-3.04471 -3.180469,-5.30603 -1.222556,-2.26133 -2.658853,-4.792575 -3.191756,-5.625 C 89.914817,88.942134 85.71971,82.500692 84.191118,80.316928 c -1.020924,-1.458502 -1.608137,-2.899909 -1.30492,-3.203125 0.689477,-0.689478 0.05737,-1.51862 7.676052,10.06871 6.594747,10.030012 8.235184,12.709668 11.68056,19.080217 1.92835,3.56552 2.04528,5.52509 0.19174,3.21305 z M 92.13437,98.4219 c -1.662035,-3.085172 -2.716722,-5.597435 -2.34375,-5.582811 0.682674,0.02677 6.77188,9.613201 6.77188,10.661181 0,1.86376 -1.800956,-0.20166 -4.42813,-5.07837 z m 16.81711,0.989494 C 105.87936,94.469381 105.32057,92.8125 106.726,92.8125 c 1.08718,0 5.99496,9.18087 5.57741,10.43353 -0.18587,0.55762 -1.69424,-1.16797 -3.35193,-3.834636 z m 4.05433,-0.915188 c -1.34312,-2.127647 -3.3157,-5.544608 -4.38353,-7.593255 -1.06781,-2.048646 -2.31738,-3.957138 -2.77683,-4.241094 C 104.41298,85.776546 102.95769,82.5 103.99695,82.5 c 0.95794,0 7.88018,10.137308 10.78235,15.790247 2.34848,4.574463 1.07741,4.722073 -1.77349,0.205959 z M 86.702721,96.192384 C 85.872083,94.44195 83.834714,91.383352 82.175234,89.39551 78.785243,85.334737 76.440332,80.625 77.808524,80.625 c 0.491329,0 1.595837,1.371094 2.454462,3.046875 0.858626,1.675781 1.822627,3.257812 2.142225,3.515625 0.917854,0.740412 6.117321,8.732616 6.861454,10.546875 1.249207,3.045675 -1.040378,1.668684 -2.563944,-1.541991 z m 52.154149,0.761804 c -1.84323,-2.343301 -2.52797,-4.141688 -1.57695,-4.141688 0.76517,0 4.48696,5.733113 4.02299,6.1971 -0.25529,0.255281 -1.35599,-0.669656 -2.44604,-2.055412 z M 121.11636,91.875 c -1.60265,-2.578125 -2.55798,-4.6875 -2.12296,-4.6875 0.43502,0 1.47228,1.054687 2.30503,2.34375 0.83274,1.289062 2.1954,3.398437 3.02814,4.6875 0.83275,1.289062 1.10674,2.34375 0.60889,2.34375 -0.49786,0 -2.21646,-2.109375 -3.8191,-4.6875 z m -7.86963,-0.0059 C 112.36837,90.325458 111.961,89.0625 112.34147,89.0625 c 0.38047,0 1.43939,1.265625 2.35315,2.8125 0.91376,1.546875 1.32113,2.809828 0.90526,2.806575 -0.41587,-0.0028 -1.47479,-1.268888 -2.35315,-2.812503 z M 85.085017,87.398746 c -1.800141,-2.505665 -3.819914,-5.582146 -4.488384,-6.836625 -0.66847,-1.254479 -1.884109,-2.773722 -2.701418,-3.376095 -0.817309,-0.602373 -1.212962,-1.368279 -0.879228,-1.702014 0.88939,-0.88939 5.094616,3.884174 8.913214,10.117839 4.138526,6.755931 3.577089,7.950984 -0.844184,1.796895 z m -7.644084,0.104188 c -1.10757,-1.518951 -1.31454,-2.28372 -0.548983,-2.028534 1.478896,0.492965 4.307748,4.53807 3.144274,4.496139 -0.449611,-0.0162 -1.617491,-1.126626 -2.595291,-2.467605 z M 71.484375,79.949777 C 70.839844,79.719587 70.3125,78.98525 70.3125,78.317917 70.3125,77.650583 69.679687,76.579396 68.90625,75.9375 68.112545,75.278783 67.5,75.180996 67.5,75.713004 c 0,1.796712 -5.577186,0.709961 -7.034558,-1.37073 -1.39623,-1.993399 -1.352836,-2.024691 2.339112,-1.686751 5.669029,0.51891 6.946174,1.140339 8.802696,4.283179 1.801529,3.049747 1.775442,3.689045 -0.122875,3.011075 z M 360.9375,74.184331 c 0,-0.872726 4.14673,-4.611487 14.29687,-12.890307 3.48047,-2.838794 6.32813,-5.509948 6.32813,-5.935899 0,-1.214811 -6.05408,-2.047038 -13.90795,-1.911859 -9.52731,0.16398 -9.73623,0.142516 -9.36791,-0.962454 0.17485,-0.524528 4.00688,-4.679044 8.51563,-9.232255 C 371.31102,38.698344 375,34.48688 375,33.892745 c 0,-0.988815 -7.71583,-1.612038 -13.82813,-1.116925 -2.25146,0.182374 -2.83872,-1.671473 -1.08502,-3.425166 0.74079,-0.740796 1.71396,-0.664542 3.51563,0.275474 1.3702,0.714901 4.81158,1.30888 7.64752,1.319952 8.37187,0.03268 8.40607,0.685965 0.46983,8.976064 -3.90765,4.081883 -7.73105,8.370825 -8.49643,9.530981 l -1.39163,2.109375 7.756,0.141375 c 4.26579,0.07776 8.89799,0.0532 10.29377,-0.05457 2.71751,-0.209822 6.36846,1.324517 6.36846,2.676388 0,0.452223 -2.63672,2.709701 -5.85938,5.016616 -3.22265,2.306917 -8.66624,6.773635 -12.09686,9.926042 -6.20635,5.703041 -7.35626,6.471495 -7.35626,4.915982 z m -73.93093,-4.009827 c -1.73232,-0.498516 -2.92265,-1.133427 -2.64517,-1.410911 0.71488,-0.71488 6.13444,0.581476 6.77693,1.621035 0.63299,1.024204 0.0554,0.99483 -4.13176,-0.210124 z M 272.8125,68.457978 c 0,-0.576693 4.11832,-2.832978 5.17094,-2.832978 0.21737,0 0.16917,0.589049 -0.1071,1.308999 -0.51446,1.340673 -5.06384,2.709823 -5.06384,1.523979 z m 44.0625,-3.368956 c 0,-0.364282 2.35598,-3.345836 5.23552,-6.625676 5.23602,-5.963894 5.18786,-7.028404 -0.22485,-4.970496 -3.48894,1.32649 -11.58034,2.158081 -11.5452,1.186553 0.0154,-0.425235 2.97723,-2.564609 6.5819,-4.754166 5.62105,-3.414354 6.34301,-3.659086 5.07205,-1.719344 -0.81505,1.243917 -2.1498,2.51796 -2.9661,2.831205 -0.8163,0.313245 -1.28208,0.771636 -1.03508,1.018647 0.24701,0.247011 2.77852,-0.352322 5.62557,-1.331851 7.78418,-2.678151 8.44327,-1.368073 2.75216,5.470492 -2.64466,3.177876 -4.80847,6.030556 -4.80847,6.339288 0,0.308733 4.53516,0.310964 10.07812,0.005 8.31325,-0.458942 9.79596,-0.346201 8.46682,0.643791 -1.00597,0.749279 -5.05634,1.267054 -10.78125,1.37821 -5.04347,0.09793 -9.90822,0.405897 -10.81057,0.684383 -0.90234,0.278484 -1.64062,0.208287 -1.64062,-0.155995 z m 28.85462,-11.941561 c 1.08435,-1.448585 3.05129,-3.483111 4.37096,-4.521169 4.05903,-3.192826 2.96452,-3.703859 -6.50683,-3.038089 -6.0598,0.425961 -8.90625,0.307374 -8.90625,-0.371051 0,-0.548404 1.79141,-2.403641 3.98091,-4.12275 3.91709,-3.075543 3.94735,-3.082554 1.88777,-0.437336 -1.15123,1.478574 -1.89815,3.003797 -1.65985,3.389384 0.2383,0.385587 3.92051,0.142703 8.18267,-0.539745 4.26217,-0.682447 8.06478,-0.925424 8.45026,-0.539949 0.38547,0.385475 -2.10535,3.42643 -5.53517,6.757679 -3.42982,3.331248 -5.34883,4.87161 -4.26447,3.423026 z m -50.53641,-6.975586 c 1.94845,-3.615381 11.14092,-12.65245 12.40016,-12.190517 0.90331,0.331374 -0.22254,1.923491 -3.60899,5.103639 -2.70704,2.542112 -4.92188,4.912943 -4.92188,5.268512 0,1.02761 5.50578,0.754622 13.125,-0.650763 3.86719,-0.713314 9.5625,-1.531079 12.65625,-1.817258 5.35027,-0.494911 5.48763,-0.456517 2.8125,0.786059 -1.54687,0.71851 -4.11212,1.325411 -5.70054,1.348668 -1.58844,0.02326 -7.49469,0.879628 -13.125,1.903048 -13.11689,2.384247 -14.80504,2.415023 -13.6375,0.248612 z M 276.5625,39.043827 c 0,-0.948004 19.62442,-20.597213 19.65336,-19.678185 0.0187,0.596415 -2.90208,4.182353 -6.49079,7.96875 -6.48823,6.845621 -6.50986,6.88597 -3.84589,7.17098 1.47348,0.157642 5.24074,-0.791576 8.37169,-2.109375 C 297.38182,31.078199 300.87027,30 302.003,30 c 2.97071,0 1.6732,0.863904 -3.54665,2.361422 -2.50255,0.717956 -8.13604,2.586861 -12.51885,4.153124 -7.76684,2.775593 -9.375,3.209459 -9.375,2.529281 z m 43.125,0.01131 c 0,-0.218373 1.59341,-2.028706 3.54091,-4.022962 1.9475,-1.994258 4.86424,-5.313421 6.48164,-7.375921 1.6174,-2.0625 3.2464,-3.445565 3.62,-3.073477 0.37358,0.372089 -1.47344,3.305085 -4.10451,6.51777 -2.63106,3.212685 -4.59934,6.025662 -4.37394,6.251058 0.2254,0.225397 2.84709,-0.246228 5.82598,-1.048054 2.97889,-0.801827 7.92769,-1.745464 10.99733,-2.096971 5.13994,-0.588581 5.47863,-0.515565 4.28424,0.923587 -0.71331,0.85948 -2.06989,1.360555 -3.01464,1.113499 -0.94474,-0.247056 -4.56015,0.166946 -8.03424,0.920005 -6.86561,1.488224 -15.22277,2.526619 -15.22277,1.891465 z M 307.5,30.007473 c -3.46216,-0.515263 -3.0934,-1.21997 1.17187,-2.239466 1.73748,-0.415296 2.57813,-1.221788 2.57813,-2.473368 0,-1.02579 0.62951,-1.857139 1.40625,-1.857139 0.77344,0 1.40625,0.651929 1.40625,1.448731 0,1.104762 0.72341,1.338429 3.04687,0.984161 8.13443,-1.24029 13.01513,-1.517791 12.51692,-0.711673 -0.468,0.757238 -9.99599,2.322293 -14.93027,2.452427 -0.94063,0.02481 -2.20625,0.684005 -2.8125,1.464884 -0.76513,0.985523 -2.10587,1.270416 -4.38352,0.931441 z m 6.59231,-9.898098 c -0.0164,-1.057031 0.46261,-2.414295 1.06446,-3.016141 1.93677,-1.936777 -1.29955,-2.260124 -7.21079,-0.720442 -7.18344,1.871046 -9.82098,1.850666 -9.82098,-0.07588 0,-1.082828 0.56775,-1.367122 1.98833,-0.995632 1.09358,0.285979 5.32089,-0.148451 9.39401,-0.965399 4.07313,-0.816949 7.65873,-1.232311 7.96801,-0.923028 0.80236,0.802355 -0.27076,4.540073 -1.93607,6.743401 -1.4135,1.870174 -1.41723,1.870054 -1.44697,-0.04687 z"
     id="path4201"
     inkscape:connector-curvature="0" />
</svg>
